<?xml version="1.0" encoding="utf-8"?>
<!-- Generator: Adobe Illustrator 25.0.1, SVG Export Plug-In . SVG Version: 6.00 Build 0)  -->
<svg version="1.1" id="Laag_1" xmlns="http://www.w3.org/2000/svg" xmlns:xlink="http://www.w3.org/1999/xlink" x="0px" y="0px"
	 viewBox="0 0 32 32" style="enable-background:new 0 0 32 32;" xml:space="preserve">
<style type="text/css">
	.st0{fill:#212427;}
</style>
<g>
	<path class="st0" d="M32.06,17.38c-0.08,0.6-0.13,1.2-0.25,1.79c-1.14,5.67-4.45,9.57-9.74,11.83c-0.31,0.13-0.62,0.24-0.94,0.34
		c-0.68,0.21-1.14-0.13-1.14-0.83c0-1.26,0-2.52,0.01-3.78c0.02-1.21-0.13-2.37-1.02-3.29c0.73-0.15,1.45-0.25,2.15-0.44
		c1.6-0.42,2.97-1.19,3.9-2.61c0.75-1.14,1.05-2.41,1.15-3.75c0.09-1.15,0.08-2.3-0.43-3.37c-0.28-0.59-0.68-1.11-1.01-1.67
		c-0.06-0.1-0.12-0.25-0.09-0.35c0.38-1.24,0.28-2.46-0.11-3.68c-0.1-0.31-0.28-0.38-0.53-0.33c-0.59,0.12-1.2,0.21-1.74,0.44
		c-0.7,0.29-1.34,0.71-2.01,1.06c-0.13,0.07-0.32,0.11-0.46,0.08c-2.51-0.62-5.01-0.61-7.51,0c-0.15,0.04-0.35-0.01-0.48-0.09
		c-1-0.61-2.01-1.18-3.17-1.42C7.71,7.1,7.6,7.16,7.37,8.07c-0.27,1.07-0.3,2.14,0.06,3.2c0.03,0.08,0,0.21-0.06,0.27
		c-1.36,1.53-1.68,3.34-1.47,5.31c0.13,1.25,0.42,2.44,1.12,3.5c0.93,1.43,2.31,2.22,3.91,2.65c0.69,0.18,1.4,0.29,2.12,0.44
		c-0.01,0.02-0.02,0.06-0.05,0.1c-0.45,0.48-0.71,1.05-0.82,1.69c-0.04,0.23-0.14,0.34-0.35,0.41c-1.18,0.4-2.34,0.49-3.38-0.32
		c-0.39-0.31-0.71-0.73-1-1.14c-0.57-0.8-1.26-1.42-2.27-1.56c-0.17-0.02-0.36-0.02-0.52,0.02c-0.13,0.03-0.31,0.12-0.33,0.21
		C4.3,22.94,4.41,23.1,4.5,23.2c0.09,0.11,0.21,0.2,0.34,0.28c0.83,0.49,1.4,1.23,1.73,2.11c0.75,2.02,2.59,2.68,4.44,2.51
		c0.34-0.03,0.68-0.09,1.04-0.14c0.01,0.08,0.02,0.16,0.02,0.23c0.01,0.75,0.02,1.5,0.02,2.25c0,0.77-0.49,1.14-1.21,0.88
		C5.4,29.33,1.88,25.54,0.45,19.86c-0.18-0.71-0.23-1.46-0.34-2.19c-0.02-0.1-0.04-0.2-0.05-0.3c0-0.65,0-1.29,0-1.94
		c0.09-0.62,0.15-1.24,0.27-1.85c1.34-7.1,7.43-12.4,14.74-12.83c3.81-0.22,7.31,0.75,10.41,2.99c3.43,2.48,5.57,5.82,6.34,10
		c0.11,0.58,0.16,1.17,0.24,1.75C32.06,16.12,32.06,16.75,32.06,17.38z"/>
</g>
</svg>
