<?xml version="1.0" encoding="utf-8"?>
<!-- Generator: Adobe Illustrator 25.0.1, SVG Export Plug-In . SVG Version: 6.00 Build 0)  -->
<svg version="1.1" id="Laag_1" xmlns="http://www.w3.org/2000/svg" xmlns:xlink="http://www.w3.org/1999/xlink" x="0px" y="0px"
	 viewBox="0 0 32 32" style="enable-background:new 0 0 32 32;" xml:space="preserve">
<style type="text/css">
	.st0{fill:#FFFFFF;}
</style>
<g>
	<path class="st0" d="M15.62,0.06c0.29,0,0.58,0,0.88,0c1.81,0.34,2.96,1.55,3.82,3.05c0.5,0.87,0.88,1.81,1.28,2.73
		c0.11,0.25,0.2,0.29,0.45,0.24c1.62-0.29,3.24-0.41,4.87-0.03c2.57,0.61,3.8,2.56,3.19,5.09c-0.31,1.31-0.98,2.45-1.76,3.52
		c-0.29,0.4-0.61,0.78-0.91,1.17c0.29,0.35,0.58,0.68,0.84,1.03c0.94,1.22,1.75,2.51,2.11,4.03c0.56,2.34-0.49,4.18-2.77,4.92
		c-1.16,0.37-2.35,0.43-3.55,0.32c-0.76-0.07-1.52-0.19-2.31-0.29c-0.04,0.1-0.08,0.22-0.13,0.33c-0.27,0.65-0.51,1.32-0.83,1.95
		c-0.95,1.83-2.1,3.47-4.31,3.92c-0.29,0-0.58,0-0.88,0c-1.01-0.2-1.86-0.68-2.58-1.41c-0.75-0.77-1.33-1.65-1.78-2.62
		c-0.34-0.71-0.62-1.45-0.94-2.18c-0.53,0.08-1.07,0.17-1.62,0.24c-1.36,0.16-2.72,0.17-4.06-0.22c-2.4-0.69-3.5-2.6-2.91-5.03
		c0.32-1.29,0.95-2.41,1.73-3.47c0.39-0.53,0.81-1.03,1.22-1.55c-0.18-0.22-0.36-0.43-0.53-0.66c-0.99-1.28-1.84-2.63-2.18-4.23
		c-0.45-2.08,0.42-3.78,2.38-4.6c1.44-0.6,2.96-0.6,4.49-0.44c0.52,0.06,1.04,0.14,1.54,0.21c0.32-0.73,0.59-1.45,0.94-2.14
		C12.26,2.15,13.41,0.52,15.62,0.06z M10.78,15.93c0.04,0.97,0.06,1.81,0.12,2.65c0.01,0.15,0.12,0.34,0.24,0.42
		c1.49,1.05,3.06,1.96,4.71,2.75c0.12,0.06,0.31,0.06,0.42,0.01c1.65-0.78,3.21-1.71,4.72-2.74c0.18-0.12,0.24-0.26,0.25-0.46
		c0.11-1.8,0.12-3.6-0.05-5.4c-0.01-0.13-0.11-0.29-0.21-0.36c-1.49-1.03-3.07-1.92-4.71-2.69c-0.11-0.05-0.29-0.05-0.4,0
		c-1.66,0.77-3.23,1.67-4.74,2.7c-0.1,0.07-0.19,0.22-0.2,0.34C10.87,14.12,10.83,15.09,10.78,15.93z M5.9,17.23
		C5.36,18,4.76,18.77,4.27,19.6c-0.32,0.55-0.57,1.16-0.73,1.78C3.2,22.7,3.73,23.6,5.03,24.04c0.11,0.04,0.22,0.07,0.33,0.09
		c0.85,0.21,1.71,0.23,2.57,0.15c0.63-0.06,1.25-0.15,1.84-0.23C9.55,22.66,9.34,21.33,9.13,20c-0.01-0.07-0.07-0.15-0.12-0.2
		C8,18.96,6.99,18.13,5.9,17.23z M26.15,17.24c-0.05,0.03-0.08,0.05-0.11,0.07c-0.97,0.82-1.94,1.64-2.9,2.47
		c-0.08,0.07-0.15,0.2-0.17,0.31c-0.13,0.78-0.23,1.56-0.36,2.34c-0.09,0.53-0.21,1.05-0.31,1.58c1.16,0.34,3.22,0.41,4.32,0.16
		c1.8-0.41,2.42-1.5,1.82-3.26C27.99,19.5,27.11,18.36,26.15,17.24z M12.2,25.43c0.39,1.11,0.84,2.22,1.58,3.18
		c0.34,0.44,0.74,0.85,1.18,1.19c0.73,0.55,1.48,0.53,2.23,0c0.3-0.21,0.57-0.46,0.81-0.73c0.85-0.97,1.37-2.13,1.82-3.32
		c0.05-0.12,0.08-0.25,0.1-0.32c-1.26-0.49-2.49-0.96-3.73-1.43c-0.07-0.03-0.16-0.03-0.23-0.01C14.72,24.46,13.48,24.94,12.2,25.43
		z M12.24,6.57c0.66,0.22,1.27,0.4,1.88,0.62c0.61,0.22,1.2,0.48,1.8,0.7c0.1,0.04,0.24,0.02,0.35-0.02
		c0.48-0.18,0.94-0.38,1.42-0.56c0.72-0.26,1.45-0.5,2.17-0.74c-0.18-0.75-0.85-2.17-1.44-2.96c-0.3-0.4-0.63-0.78-1-1.1
		c-0.92-0.77-1.81-0.77-2.73,0.01C13.42,3.58,12.82,5.05,12.24,6.57z M9.81,7.92c-0.6-0.07-1.22-0.16-1.84-0.2
		C7.02,7.65,6.06,7.69,5.15,8.04C4,8.47,3.55,9.31,3.78,10.51c0.17,0.84,0.53,1.6,0.99,2.31c0.38,0.58,0.8,1.13,1.18,1.65
		c1.06-0.85,2.06-1.66,3.06-2.47c0.07-0.06,0.14-0.16,0.16-0.25C9.39,10.49,9.6,9.23,9.81,7.92z M22.28,7.95
		c-0.01,0.04-0.02,0.06-0.01,0.08c0.22,1.24,0.44,2.48,0.67,3.71c0.02,0.08,0.06,0.18,0.13,0.23c1.02,0.82,2.04,1.64,3.08,2.48
		c0.1-0.12,0.23-0.27,0.35-0.42c0.76-0.98,1.45-2.01,1.78-3.23c0.39-1.48-0.13-2.44-1.61-2.86C25.21,7.52,23.74,7.7,22.28,7.95z
		 M11.64,23.59c0.74-0.25,1.43-0.49,2.17-0.74c-0.89-0.52-1.72-1-2.62-1.53C11.34,22.11,11.48,22.82,11.64,23.59z M20.94,21.33
		c-0.91,0.53-1.74,1.02-2.62,1.53c0.75,0.25,1.45,0.48,2.17,0.73C20.64,22.82,20.78,22.12,20.94,21.33z M23.19,17.38
		c0.59-0.53,1.12-1.01,1.67-1.51c-0.57-0.5-1.09-0.96-1.67-1.46C23.19,15.42,23.19,16.35,23.19,17.38z M7.27,15.87
		c0.56,0.5,1.09,0.98,1.66,1.49c0-1.02,0-1.95,0-2.95C8.36,14.92,7.84,15.37,7.27,15.87z M11.69,8.36
		c-0.15,0.71-0.29,1.39-0.45,2.12c0.86-0.49,1.66-0.95,2.53-1.45C13.04,8.8,12.38,8.58,11.69,8.36z M18.37,9.03
		c0.84,0.49,1.61,0.94,2.38,1.39c0.02,0.01,0.06,0.01,0.12,0.02c-0.15-0.7-0.29-1.37-0.44-2.08C19.74,8.58,19.09,8.8,18.37,9.03z"/>
	<path class="st0" d="M16.07,18.95c-1.61,0-2.89-1.28-2.89-2.89c0-1.61,1.29-2.89,2.9-2.88c1.6,0.01,2.87,1.28,2.88,2.88
		C18.96,17.66,17.68,18.95,16.07,18.95z"/>
</g>
</svg>
