<?xml version="1.0" encoding="utf-8"?>
<!-- Generator: Adobe Illustrator 25.0.1, SVG Export Plug-In . SVG Version: 6.00 Build 0)  -->
<svg version="1.1" id="Laag_1" xmlns="http://www.w3.org/2000/svg" xmlns:xlink="http://www.w3.org/1999/xlink" x="0px" y="0px"
	 viewBox="0 0 32 32" style="enable-background:new 0 0 32 32;" xml:space="preserve">
<style type="text/css">
	.st0{fill:#FFFFFF;}
</style>
<g>
	<path class="st0" d="M32.06,16.12c-0.09,0.07-0.2,0.14-0.28,0.22c-2.8,2.8-5.6,5.59-8.39,8.39c-0.09,0.09-0.15,0.2-0.21,0.28
		c-0.79-0.79-1.52-1.52-2.26-2.25c2.2-2.2,4.43-4.43,6.65-6.65c-2.26-2.26-4.49-4.49-6.69-6.69c0.78-0.78,1.52-1.52,2.32-2.32
		c0.05,0.07,0.11,0.18,0.19,0.27c2.8,2.8,5.59,5.6,8.39,8.39c0.08,0.08,0.19,0.15,0.28,0.23C32.06,16.04,32.06,16.08,32.06,16.12z"
		/>
	<path class="st0" d="M0.06,16c0.09-0.07,0.2-0.14,0.28-0.22c2.8-2.8,5.6-5.59,8.39-8.39C8.83,7.3,8.89,7.18,8.95,7.1
		c0.79,0.78,1.52,1.52,2.25,2.25C9,11.55,6.77,13.78,4.56,16c2.26,2.26,4.49,4.49,6.69,6.69c-0.79,0.79-1.52,1.52-2.28,2.29
		c-2.94-2.95-5.92-5.93-8.9-8.91C0.06,16.04,0.06,16.02,0.06,16z"/>
	<path class="st0" d="M12.89,25.43c1.07-6.43,2.13-12.82,3.2-19.24c1.05,0.17,2.08,0.35,3.16,0.52c-1.07,6.41-2.13,12.81-3.2,19.24
		C14.99,25.78,13.96,25.61,12.89,25.43z"/>
</g>
</svg>
