<?xml version="1.0" encoding="utf-8"?>
<!-- Generator: Adobe Illustrator 25.0.1, SVG Export Plug-In . SVG Version: 6.00 Build 0)  -->
<svg version="1.1" id="Laag_1" xmlns="http://www.w3.org/2000/svg" xmlns:xlink="http://www.w3.org/1999/xlink" x="0px" y="0px"
	 viewBox="0 0 32 32" style="enable-background:new 0 0 32 32;" xml:space="preserve">
<style type="text/css">
	.st0{fill:#FFFFFF;}
</style>
<g>
	<path class="st0" d="M7.17,0.03c1.58,0.91,3.16,1.81,4.75,2.72c0.41,0.24,0.83,0.48,1.24,0.72c0.22,0.12,0.31,0.29,0.31,0.55
		c0,4.11,0,8.23,0,12.34c0,0.07,0,0.13,0,0.23c0.07-0.04,0.12-0.06,0.17-0.08c1.54-0.88,3.07-1.77,4.61-2.65
		c0.13-0.08,0.17-0.16,0.17-0.31c-0.01-2.05,0-4.1-0.01-6.16c0-0.28,0.11-0.46,0.35-0.59c1.89-1.08,3.78-2.17,5.66-3.26
		c0.28-0.16,0.5-0.16,0.78,0c1.87,1.09,3.75,2.17,5.63,3.25c0.26,0.15,0.37,0.34,0.37,0.64c-0.01,2.16-0.01,4.32,0,6.48
		c0,0.29-0.11,0.47-0.36,0.61c-1.8,1.03-3.6,2.07-5.4,3.1c-0.11,0.06-0.16,0.13-0.16,0.27c0,2.05,0,4.1,0.01,6.16
		c0,0.3-0.11,0.49-0.37,0.64c-3.84,2.21-7.68,4.42-11.51,6.63c-0.3,0.17-0.54,0.18-0.84,0c-3.83-2.22-7.66-4.42-11.5-6.63
		c-0.28-0.16-0.4-0.35-0.4-0.67c0.01-6.65,0.01-13.29,0-19.94c0-0.3,0.11-0.49,0.37-0.64c1.9-1.09,3.79-2.18,5.69-3.27
		C6.81,0.12,6.9,0.08,6.98,0.03C7.04,0.03,7.1,0.03,7.17,0.03z M12.51,30.15c0-0.1,0-0.15,0-0.21c0-1.77,0-3.53,0-5.3
		c0-0.14-0.05-0.21-0.17-0.28c-1.78-1-3.55-2.02-5.34-3.01c-0.3-0.17-0.42-0.38-0.42-0.72c0.01-4.28,0-8.55,0.01-12.83
		c0-0.14-0.04-0.22-0.17-0.29C4.89,6.63,3.36,5.75,1.82,4.86c-0.05-0.03-0.1-0.05-0.18-0.09c0,0.1,0,0.16,0,0.23
		c0,6.23,0,12.47,0,18.7c0,0.16,0.05,0.24,0.19,0.31c3.5,2.01,6.99,4.02,10.49,6.04C12.36,30.08,12.42,30.11,12.51,30.15z
		 M13.47,30.15c0.08-0.04,0.13-0.06,0.18-0.09c3.51-2.02,7.02-4.04,10.53-6.06c0.11-0.06,0.16-0.13,0.16-0.27c0-1.76,0-3.51,0-5.27
		c0-0.06-0.01-0.11-0.01-0.19c-0.07,0.04-0.12,0.06-0.17,0.09c-3.51,2.01-7.02,4.01-10.54,6.01c-0.11,0.06-0.15,0.13-0.15,0.26
		c0,1.78,0,3.55,0,5.33C13.47,30.01,13.47,30.07,13.47,30.15z M8.06,20.83c0.07,0.04,0.12,0.08,0.16,0.1
		c1.55,0.88,3.09,1.75,4.64,2.63c0.09,0.05,0.16,0.05,0.25,0c3.52-2.02,7.05-4.03,10.57-6.04c0.04-0.02,0.08-0.05,0.14-0.09
		c-0.05-0.03-0.08-0.05-0.11-0.07c-1.57-0.9-3.13-1.81-4.7-2.71c-0.1-0.06-0.17-0.03-0.25,0.02c-2.85,1.64-5.7,3.29-8.55,4.93
		C9.5,20,8.79,20.41,8.06,20.83z M7.56,19.99c0.08-0.04,0.13-0.07,0.18-0.09c1.54-0.89,3.08-1.78,4.62-2.66
		c0.11-0.06,0.15-0.13,0.15-0.26c0-4,0-8.01,0-12.01c0-0.06,0-0.11,0-0.19c-0.07,0.03-0.12,0.05-0.16,0.08
		c-1.54,0.89-3.08,1.78-4.62,2.66C7.6,7.59,7.56,7.66,7.56,7.81c0,3.99,0,7.98,0,11.97C7.56,19.83,7.56,19.9,7.56,19.99z
		 M29.74,7.28c-0.06-0.03-0.08-0.05-0.11-0.07c-1.57-0.91-3.14-1.81-4.71-2.72c-0.08-0.05-0.14-0.05-0.23,0
		c-1.56,0.9-3.13,1.8-4.69,2.7c-0.04,0.02-0.07,0.05-0.12,0.09c0.06,0.04,0.1,0.07,0.14,0.09c1.54,0.89,3.09,1.78,4.63,2.67
		c0.11,0.06,0.19,0.06,0.3,0c1.5-0.87,3.01-1.74,4.51-2.6C29.55,7.39,29.64,7.34,29.74,7.28z M2.14,3.92C2.21,3.97,2.25,4,2.3,4.03
		C3.85,4.92,5.39,5.81,6.94,6.7c0.1,0.06,0.18,0.06,0.28,0c1.54-0.89,3.09-1.78,4.63-2.67C11.9,4,11.94,3.97,12,3.93
		c-0.05-0.03-0.08-0.06-0.12-0.08c-1.56-0.9-3.13-1.8-4.69-2.7C7.1,1.09,7.03,1.1,6.94,1.16C5.63,1.91,4.32,2.67,3.01,3.42
		C2.73,3.59,2.45,3.75,2.14,3.92z M24.32,16.59c0-0.09,0.01-0.15,0.01-0.2c0-1.75,0-3.51,0-5.26c0-0.12-0.03-0.19-0.14-0.25
		c-1.55-0.89-3.1-1.78-4.65-2.67c-0.05-0.03-0.1-0.05-0.16-0.08c0,0.07-0.01,0.12-0.01,0.17c0,1.77,0,3.53,0,5.29
		c0,0.12,0.05,0.18,0.15,0.24c1.2,0.69,2.4,1.38,3.59,2.07C23.5,16.13,23.89,16.35,24.32,16.59z M25.3,16.59
		c0.08-0.04,0.14-0.07,0.19-0.11c1.54-0.88,3.07-1.77,4.61-2.65c0.1-0.06,0.14-0.12,0.14-0.24c0-1.76,0-3.52,0-5.28
		c0-0.05-0.01-0.11-0.01-0.18c-0.06,0.03-0.11,0.05-0.15,0.07c-1.55,0.89-3.11,1.79-4.66,2.68c-0.1,0.06-0.13,0.12-0.13,0.23
		c0,1.76,0,3.53,0,5.29C25.29,16.46,25.3,16.51,25.3,16.59z"/>
</g>
</svg>
