<?xml version="1.0" encoding="utf-8"?>
<!-- Generator: Adobe Illustrator 25.0.1, SVG Export Plug-In . SVG Version: 6.00 Build 0)  -->
<svg version="1.1" id="Laag_1" xmlns="http://www.w3.org/2000/svg" xmlns:xlink="http://www.w3.org/1999/xlink" x="0px" y="0px"
	 viewBox="0 0 32 32" style="enable-background:new 0 0 32 32;" xml:space="preserve">
<style type="text/css">
	.st0{fill:#FFFFFF;}
</style>
<g>
	<path class="st0" d="M16.31,6.44c0.33,0.03,0.65,0.07,0.98,0.1c2.09,0.19,3.83,1.11,5.31,2.57c0.66,0.65,1.31,1.31,2,1.93
		c1.83,1.65,4.52,1.6,6.43-0.24c0.33-0.31,0.63-0.66,0.94-0.99c0.03,0.01,0.05,0.02,0.08,0.03c-0.26,0.67-0.48,1.36-0.79,2.01
		c-1.23,2.58-3.33,3.9-6.14,4.16c-1.74,0.15-3.43-0.01-5.03-0.75c-1.07-0.49-1.95-1.22-2.78-2.03c-0.61-0.6-1.2-1.22-1.84-1.77
		c-1.74-1.49-4.07-1.54-5.88-0.13c-0.52,0.41-0.97,0.9-1.47,1.38c0.08-0.27,0.16-0.55,0.25-0.83c0.52-1.53,1.31-2.88,2.61-3.88
		c1.25-0.96,2.69-1.37,4.23-1.49c0.14-0.01,0.28-0.04,0.42-0.06C15.85,6.44,16.08,6.44,16.31,6.44z"/>
	<path class="st0" d="M15.69,25.69c-0.44-0.05-0.88-0.09-1.32-0.16c-1.89-0.27-3.47-1.16-4.82-2.49C8.84,22.35,8.15,21.63,7.4,21
		c-1.67-1.41-3.92-1.48-5.67-0.18c-0.58,0.43-1.08,0.97-1.68,1.52c0.3-0.77,0.54-1.5,0.87-2.18c1.25-2.53,3.34-3.81,6.12-4.05
		c1.84-0.16,3.61,0.04,5.28,0.88c0.96,0.49,1.76,1.17,2.52,1.92c0.6,0.59,1.18,1.21,1.83,1.75c1.86,1.57,4.31,1.53,6.15-0.07
		c0.42-0.36,0.83-0.72,1.15-0.99c-0.07,0.22-0.19,0.63-0.34,1.03c-0.53,1.41-1.32,2.64-2.54,3.55c-1.33,0.99-2.87,1.38-4.5,1.45
		c-0.11,0-0.22,0.03-0.33,0.05C16.06,25.69,15.88,25.69,15.69,25.69z"/>
</g>
</svg>
