<?xml version="1.0" encoding="utf-8"?>
<!-- Generator: Adobe Illustrator 25.0.1, SVG Export Plug-In . SVG Version: 6.00 Build 0)  -->
<svg version="1.1" id="Laag_1" xmlns="http://www.w3.org/2000/svg" xmlns:xlink="http://www.w3.org/1999/xlink" x="0px" y="0px"
	 viewBox="0 0 32 32" style="enable-background:new 0 0 32 32;" xml:space="preserve">
<style type="text/css">
	.st0{fill:#FFFFFF;}
</style>
<g>
	<path class="st0" d="M2.06,0.06c9.33,0,18.67,0,28,0c-0.13,1.51-0.27,3.03-0.4,4.54c-0.2,2.24-0.4,4.48-0.6,6.72
		c-0.18,1.99-0.35,3.98-0.53,5.97c-0.2,2.24-0.4,4.48-0.6,6.72c-0.14,1.53-0.28,3.07-0.41,4.6c-0.02,0.2-0.09,0.28-0.28,0.33
		c-2.92,0.81-5.83,1.62-8.74,2.44c-0.78,0.22-1.55,0.46-2.32,0.68c-0.08,0-0.17,0-0.25,0c-0.1-0.04-0.2-0.09-0.31-0.12
		c-3.58-1-7.17-2.01-10.75-3c-0.19-0.05-0.27-0.13-0.29-0.33c-0.04-0.56-0.1-1.12-0.15-1.68c-0.2-2.23-0.39-4.46-0.59-6.69
		c-0.2-2.24-0.4-4.48-0.6-6.72c-0.2-2.23-0.39-4.46-0.59-6.69C2.47,4.58,2.26,2.32,2.06,0.06z M8.3,18.27
		c0.03,0.3,0.05,0.56,0.07,0.82c0.14,1.53,0.28,3.07,0.41,4.6c0.02,0.2,0.09,0.27,0.29,0.33c2.26,0.62,4.51,1.24,6.77,1.86
		c0.12,0.03,0.25,0.05,0.36,0.02c2.31-0.63,4.61-1.27,6.91-1.91c0.09-0.02,0.19-0.15,0.21-0.24c0.05-0.34,0.08-0.68,0.11-1.02
		c0.22-2.45,0.43-4.9,0.65-7.34c0.24-2.69,0.48-5.37,0.73-8.06c0.04-0.45,0.07-0.9,0.11-1.36c-5.92,0-11.81,0-17.72,0
		c0.08,1.11,0.15,2.2,0.23,3.3c4.58,0,9.12,0,13.68,0c-0.08,1.06-0.16,2.1-0.23,3.14c-0.03,0.42-0.02,0.43-0.43,0.43
		c-4.09,0.05-8.19,0.1-12.28,0.15c-0.12,0-0.24,0-0.38,0c0.12,1.15,0.24,2.24,0.35,3.34c4.16,0,8.28,0,12.41,0
		c-0.17,1.54-0.33,3.06-0.49,4.59c-0.02,0.21-0.1,0.32-0.32,0.38c-1.15,0.29-2.29,0.61-3.44,0.91c-0.15,0.04-0.33,0.04-0.48,0
		c-1.14-0.3-2.27-0.61-3.41-0.9c-0.22-0.06-0.3-0.17-0.31-0.38c-0.06-0.8-0.13-1.6-0.22-2.39c-0.01-0.09-0.11-0.25-0.18-0.25
		C10.58,18.27,9.47,18.27,8.3,18.27z"/>
</g>
</svg>
