<?xml version="1.0" encoding="utf-8"?>
<!-- Generator: Adobe Illustrator 25.0.1, SVG Export Plug-In . SVG Version: 6.00 Build 0)  -->
<svg version="1.1" xmlns="http://www.w3.org/2000/svg" xmlns:xlink="http://www.w3.org/1999/xlink" x="0px" y="0px"
	 viewBox="0 0 32 32" style="enable-background:new 0 0 32 32;" xml:space="preserve">
<style type="text/css">
	.st0{display:none;}
	.st1{display:inline;}
	.st2{fill:#FFFFFF;}
</style>
<g id="Laag_1" class="st0">
	<g class="st1">
		<rect y="0" width="32" height="32"/>
	</g>
</g>
<g id="Laag_2">
	<g>
		<path class="st2" d="M32.06,10.5c-0.13,0.59-0.21,1.18-0.39,1.76c-0.38,1.26-1.09,2.33-2.05,3.25c-0.97-0.95-2.11-1.3-3.41-1
			c-1.32,0.3-2.14,1.17-2.61,2.42c-1.71-0.54-3.18-0.18-4.24,1.29c-0.94,1.31-0.87,2.7-0.06,4.05c-0.37,0.25-0.76,0.48-1.1,0.78
			c-1.15,1-1.49,2.65-0.85,4.04c0.09,0.2,0.06,0.31-0.09,0.45c-0.66,0.64-1.3,1.29-1.95,1.94c-0.6,0.59-1.43,0.63-1.98,0.09
			c-0.58-0.56-0.56-1.41,0.06-2.03c0.63-0.64,1.27-1.26,1.9-1.9c0.6-0.62,0.31-1.6-0.52-1.79c-0.4-0.09-0.74,0.05-1.02,0.33
			c-0.62,0.62-1.24,1.24-1.86,1.86c-0.61,0.6-1.44,0.63-2,0.08c-0.56-0.56-0.53-1.4,0.07-2c0.61-0.61,1.22-1.22,1.83-1.83
			c0.5-0.5,0.53-1.13,0.08-1.58c-0.44-0.44-1.08-0.41-1.58,0.08c-0.65,0.65-1.3,1.3-1.95,1.94c-0.55,0.54-1.28,0.57-1.78,0.07
			c-0.49-0.49-0.45-1.24,0.09-1.78c2.34-2.34,4.69-4.68,7.02-7.03c0.19-0.19,0.31-0.22,0.5-0.01c0.33,0.36,0.69,0.69,1.04,1.04
			c1.14,1.12,2.94,1.4,4.4,0.67c1.44-0.72,2.25-2.31,2.03-3.92c-0.12-0.88-0.49-1.62-1.13-2.24c-1.05-1.01-2.09-2.03-3.14-3.05
			c-0.08-0.08-0.19-0.13-0.3-0.21c1.13-1.04,2.03-2.18,3.28-2.96c4.58-2.84,10.74-0.04,11.59,5.28c0.03,0.2,0.08,0.4,0.12,0.61
			C32.06,9.62,32.06,10.06,32.06,10.5z"/>
		<path class="st2" d="M0.06,9.12c0.12-0.54,0.21-1.08,0.38-1.6c1.62-5,8.04-6.64,11.85-3.01c2.25,2.15,4.47,4.33,6.7,6.51
			c0.98,0.96,0.63,2.52-0.64,2.88c-0.61,0.17-1.18,0.06-1.65-0.4c-0.39-0.38-0.76-0.77-1.15-1.15c-0.97-0.94-2.3-0.94-3.26,0.02
			c-1.99,1.99-3.98,3.97-5.96,5.97c-0.09,0.09-0.14,0.21-0.22,0.33c-0.54-0.51-1.02-0.95-1.48-1.4c-0.96-0.92-1.96-1.81-2.86-2.79
			c-0.96-1.04-1.47-2.33-1.65-3.74c-0.01-0.08-0.04-0.16-0.06-0.24C0.06,10.04,0.06,9.58,0.06,9.12z"/>
		<path class="st2" d="M25.43,24.84c-0.38,0-0.72-0.13-0.99-0.4c-1.08-1.07-2.16-2.14-3.22-3.23c-0.53-0.54-0.52-1.4,0.01-1.95
			c0.55-0.57,1.41-0.64,1.96-0.1c1.13,1.09,2.24,2.2,3.33,3.34c0.41,0.43,0.44,0.97,0.2,1.52C26.5,24.51,25.98,24.84,25.43,24.84z"
			/>
		<path class="st2" d="M25.61,17.94c0.02-0.61,0.31-1.06,0.86-1.3c0.55-0.25,1.09-0.16,1.53,0.26c0.68,0.65,1.34,1.31,1.99,1.99
			c0.56,0.58,0.54,1.43-0.01,1.99c-0.56,0.56-1.41,0.59-1.99,0.04c-0.68-0.66-1.34-1.33-2.01-2.01
			C25.72,18.64,25.6,18.31,25.61,17.94z"/>
		<path class="st2" d="M21.9,28.32c-0.45-0.01-0.78-0.14-1.05-0.41c-0.43-0.42-0.86-0.85-1.28-1.28c-0.54-0.56-0.53-1.42,0.01-1.97
			c0.56-0.57,1.41-0.61,1.99-0.07c0.46,0.43,0.91,0.88,1.34,1.35c0.41,0.45,0.49,0.98,0.23,1.53C22.89,28.02,22.44,28.3,21.9,28.32z
			"/>
	</g>
</g>
</svg>
