<?xml version="1.0" encoding="utf-8"?>
<!-- Generator: Adobe Illustrator 25.0.1, SVG Export Plug-In . SVG Version: 6.00 Build 0)  -->
<svg version="1.1" xmlns="http://www.w3.org/2000/svg" xmlns:xlink="http://www.w3.org/1999/xlink" x="0px" y="0px"
	 viewBox="0 0 32 32" style="enable-background:new 0 0 32 32;" xml:space="preserve">
<style type="text/css">
	.st0{display:none;}
	.st1{display:inline;}
	.st2{fill:#212427;}
</style>
<g id="Laag_2" class="st0">
	<rect y="0" class="st1" width="32" height="32"/>
</g>
<g id="Laag_1">
	<g>
		<path class="st2" d="M31.82,13.75c-0.78-4.18-2.91-7.52-6.34-10c-3.11-2.24-6.6-3.21-10.42-2.99C7.76,1.19,1.67,6.49,0.33,13.59
			c-0.12,0.61-0.18,1.23-0.27,1.85v1.94c0.02,0.1,0.04,0.2,0.06,0.3c0.11,0.73,0.15,1.47,0.33,2.18c1.43,5.68,4.95,9.47,10.43,11.46
			c0.73,0.27,1.22-0.1,1.21-0.87c0-0.75-0.01-1.5-0.02-2.25c0-0.08-0.01-0.16-0.02-0.24c-0.36,0.05-0.7,0.11-1.04,0.14
			c-1.86,0.16-3.69-0.5-4.44-2.51c-0.33-0.89-0.9-1.62-1.73-2.11C4.71,23.4,4.59,23.31,4.5,23.2c-0.09-0.1-0.2-0.26-0.17-0.37
			c0.02-0.09,0.21-0.18,0.33-0.21c0.17-0.04,0.35-0.04,0.53-0.02c1.01,0.14,1.69,0.75,2.27,1.56c0.29,0.41,0.6,0.83,0.99,1.14
			c1.04,0.81,2.21,0.72,3.39,0.32c0.21-0.07,0.31-0.18,0.35-0.41c0.11-0.63,0.37-1.21,0.82-1.68c0.03-0.04,0.04-0.08,0.05-0.1
			c-0.72-0.15-1.43-0.26-2.12-0.44c-1.61-0.42-2.98-1.21-3.91-2.64c-0.69-1.07-0.99-2.26-1.12-3.51c-0.2-1.96,0.11-3.77,1.47-5.3
			c0.06-0.06,0.08-0.19,0.06-0.27c-0.36-1.06-0.34-2.13-0.07-3.2C7.6,7.16,7.71,7.1,8.63,7.29c1.16,0.24,2.18,0.8,3.18,1.41
			c0.13,0.08,0.33,0.13,0.48,0.1c2.5-0.62,5-0.62,7.51,0c0.14,0.03,0.32-0.01,0.46-0.08c0.67-0.35,1.31-0.77,2.01-1.06
			c0.55-0.22,1.15-0.31,1.74-0.44c0.25-0.05,0.43,0.03,0.53,0.33c0.39,1.22,0.49,2.44,0.11,3.68c-0.03,0.1,0.03,0.25,0.09,0.35
			c0.34,0.57,0.74,1.09,1.01,1.68c0.51,1.06,0.52,2.22,0.43,3.37c-0.09,1.19-0.34,2.33-0.93,3.37c-0.06,0.13-0.14,0.25-0.22,0.37
			c-0.93,1.42-2.31,2.2-3.9,2.61c-0.37,0.1-0.75,0.18-1.13,0.25c-0.34,0.07-0.68,0.12-1.02,0.19c0.85,0.87,1.02,1.95,1.02,3.09v0.2
			c-0.01,1.26-0.01,2.52-0.01,3.78c0,0.44,0.18,0.74,0.48,0.84c0.18,0.07,0.4,0.08,0.66,0c0.32-0.1,0.63-0.21,0.94-0.34
			c1.65-0.7,3.11-1.56,4.37-2.59c-0.11-0.03-0.22-0.08-0.33-0.14c-0.28-0.16-0.42-0.42-0.48-0.73c-0.08-0.42-0.16-0.85-0.25-1.27
			c-0.02-0.09,0.01-0.15,0.06-0.21c0.22-0.29,0.4-0.6,0.47-0.97c0.02-0.13,0.02-0.28-0.01-0.41c-0.04-0.19-0.22-0.29-0.41-0.25
			c-0.14,0.04-0.28,0.1-0.43,0.15c-0.04-0.19-0.08-0.38-0.11-0.58c-0.04-0.18-0.08-0.37-0.11-0.56c0-0.03,0.02-0.09,0.04-0.1
			c0.45-0.25,0.9-0.5,1.35-0.74c0.01-0.01,0.02-0.01,0.05-0.02c0.06,0.31,0.12,0.61,0.19,0.93c0.04-0.02,0.08-0.03,0.11-0.05
			c0.46-0.23,0.94-0.38,1.45-0.38c0.32,0.01,0.63,0.07,0.88,0.29c0.33,0.29,0.39,0.67,0.34,1.08c-0.08,0.58-0.37,1.06-0.74,1.5
			c-0.07,0.09-0.05,0.14,0.02,0.2c0.03,0.02,0.07,0.04,0.1,0.05c1.29-1.58,2.23-3.45,2.83-5.6c0.14-0.46,0.25-0.94,0.35-1.43
			c0.12-0.59,0.17-1.19,0.25-1.78V15.5C31.98,14.92,31.93,14.33,31.82,13.75z M24.95,26.57c0.04,0.19,0.08,0.39,0.11,0.6
			c0.04,0.19,0.08,0.39,0.12,0.58c0.01,0.06,0.02,0.11-0.05,0.15c-0.91,0.5-1.82,1-2.72,1.5h-0.05c-0.02-0.11-0.05-0.22-0.07-0.33
			c-0.24-1.24-0.47-2.48-0.72-3.73c-0.02-0.13,0-0.19,0.12-0.25c0.86-0.47,1.7-0.94,2.55-1.41c0.04-0.02,0.09-0.04,0.14-0.06
			c0.06,0.3,0.12,0.59,0.17,0.88c0.03,0.15,0.1,0.3,0.07,0.43c-0.02,0.14-0.16,0.24-0.24,0.37c-0.19,0.3-0.36,0.61-0.37,0.98
			c0,0.07,0,0.14,0.02,0.2c0.06,0.23,0.24,0.34,0.45,0.27C24.64,26.71,24.79,26.63,24.95,26.57z"/>
	</g>
</g>
<g id="Laag_3">
	<g>
		<path class="st2" d="M31.85,21.29c-0.09-0.28-0.23-0.51-0.39-0.7c-0.31-0.34-0.73-0.53-1.24-0.57c-0.03,0-0.06-0.01-0.1-0.02
			h-8.17c-0.17,0.03-0.33,0.06-0.49,0.1c-0.78,0.21-1.28,0.69-1.42,1.5c-0.01,0.06-0.03,0.12-0.04,0.18v8.37
			c0.02,0.1,0.04,0.21,0.07,0.32c0.08,0.34,0.21,0.63,0.4,0.86c0.26,0.35,0.65,0.57,1.18,0.65c0.01,0,0.02,0.01,0.04,0.02H32V21.88
			C31.95,21.68,31.92,21.48,31.85,21.29z M24.03,26.48c0.06,0.23,0.24,0.34,0.45,0.27c0.16-0.04,0.31-0.12,0.47-0.18
			c0.04,0.19,0.08,0.39,0.11,0.6c0.04,0.19,0.08,0.39,0.12,0.58c0.01,0.06,0.02,0.11-0.05,0.15c-0.91,0.5-1.82,1-2.72,1.5h-0.05
			c-0.02-0.11-0.05-0.22-0.07-0.33c-0.24-1.24-0.47-2.48-0.72-3.73c-0.02-0.13,0-0.19,0.12-0.25c0.86-0.47,1.7-0.94,2.55-1.41
			c0.04-0.02,0.09-0.04,0.14-0.06c0.06,0.3,0.12,0.59,0.17,0.88c0.03,0.15,0.1,0.3,0.07,0.43c-0.02,0.14-0.16,0.24-0.24,0.37
			c-0.19,0.3-0.36,0.61-0.37,0.98C24.01,26.35,24.01,26.42,24.03,26.48z M30.39,25.98c-0.37,0.79-0.96,1.39-1.69,1.86
			c-0.43,0.27-0.89,0.48-1.41,0.57c-0.28,0.05-0.57,0.06-0.85-0.01c-0.11-0.03-0.22-0.08-0.33-0.14c-0.28-0.16-0.42-0.42-0.48-0.73
			c-0.08-0.42-0.16-0.85-0.25-1.27c-0.02-0.09,0.01-0.15,0.06-0.21c0.22-0.29,0.4-0.6,0.47-0.97c0.02-0.13,0.02-0.28-0.01-0.41
			c-0.04-0.19-0.22-0.29-0.41-0.25c-0.14,0.04-0.28,0.1-0.43,0.15c-0.04-0.19-0.08-0.38-0.11-0.58c-0.04-0.18-0.08-0.37-0.11-0.56
			c0-0.03,0.02-0.09,0.04-0.1c0.45-0.25,0.9-0.5,1.35-0.74c0.01-0.01,0.02-0.01,0.05-0.02c0.06,0.31,0.12,0.61,0.19,0.93
			c0.04-0.02,0.08-0.03,0.11-0.05c0.46-0.23,0.94-0.38,1.45-0.38c0.32,0.01,0.63,0.07,0.88,0.29c0.33,0.29,0.39,0.67,0.34,1.08
			c-0.08,0.58-0.37,1.06-0.74,1.5c-0.07,0.09-0.05,0.14,0.02,0.2c0.03,0.02,0.07,0.04,0.1,0.05c0.13,0.08,0.28,0.08,0.42,0.05
			c0.7-0.16,1.22-0.55,1.49-1.23c0.01-0.03,0.02-0.05,0.03-0.07C30.64,25.31,30.55,25.65,30.39,25.98z"/>
	</g>
</g>
</svg>
