<?xml version="1.0" encoding="utf-8"?>
<!-- Generator: Adobe Illustrator 25.0.1, SVG Export Plug-In . SVG Version: 6.00 Build 0)  -->
<svg version="1.1" xmlns="http://www.w3.org/2000/svg" xmlns:xlink="http://www.w3.org/1999/xlink" x="0px" y="0px"
	 viewBox="0 0 32 32" style="enable-background:new 0 0 32 32;" xml:space="preserve">
<style type="text/css">
	.st0{display:none;}
	.st1{display:inline;}
	.st2{fill:#FFFFFF;}
</style>
<g id="Laag_2" class="st0">
	<rect y="0" class="st1" width="32" height="32"/>
</g>
<g id="Laag_1">
	<g>
		<path class="st2" d="M0,32C0,21.34,0,10.67,0,0c10.66,0,21.32,0,32,0c0,10.66,0,21.33,0,32C21.34,32,10.67,32,0,32z M19.03,26.4
			c0.43,0.87,1.02,1.55,1.8,2.07c1.63,1.07,3.42,1.28,5.27,0.87c2.44-0.54,3.61-2.16,3.41-4.64c-0.11-1.36-0.8-2.4-1.95-3.07
			c-0.98-0.58-2.05-1.01-3.06-1.53c-0.4-0.21-0.82-0.43-1.16-0.71c-0.41-0.33-0.46-0.82-0.34-1.32c0.12-0.48,0.47-0.77,0.94-0.86
			c0.79-0.15,1.49,0.03,2,0.72c0.12,0.16,0.24,0.33,0.37,0.52c0.8-0.51,1.57-1.01,2.36-1.52c-0.69-1.24-1.65-2.05-3.02-2.32
			c-0.83-0.17-1.66-0.19-2.48,0c-1.49,0.35-2.62,1.16-3.05,2.68c-0.44,1.55-0.18,2.99,0.96,4.2c0.71,0.75,1.63,1.17,2.56,1.59
			c0.7,0.31,1.4,0.63,2.08,0.99c0.54,0.29,0.83,0.77,0.76,1.39c-0.08,0.66-0.52,1.02-1.12,1.2c-1.34,0.42-2.72-0.09-3.58-1.31
			c-0.09-0.13-0.18-0.25-0.27-0.39C20.67,25.46,19.86,25.92,19.03,26.4z M14.41,14.68c-0.01,0.17-0.02,0.32-0.02,0.47
			c0,3.15,0,6.29,0,9.44c0,0.28-0.01,0.56-0.03,0.84c-0.05,0.67-0.38,1.12-0.93,1.27c-0.83,0.24-1.55,0-2.06-0.7
			c-0.18-0.24-0.33-0.5-0.51-0.76c-0.83,0.5-1.65,1-2.47,1.5c0.47,0.97,1.11,1.72,2.03,2.2c1.07,0.56,2.21,0.65,3.4,0.53
			c1.64-0.17,2.94-1.18,3.38-2.76c0.15-0.53,0.24-1.1,0.24-1.66c0.02-3.34,0.01-6.69,0.01-10.03c0-0.11-0.01-0.22-0.02-0.34
			C16.42,14.68,15.43,14.68,14.41,14.68z"/>
	</g>
</g>
</svg>
