<?xml version="1.0" encoding="utf-8"?>
<!-- Generator: Adobe Illustrator 25.0.1, SVG Export Plug-In . SVG Version: 6.00 Build 0)  -->
<svg version="1.1" id="Laag_2" xmlns="http://www.w3.org/2000/svg" xmlns:xlink="http://www.w3.org/1999/xlink" x="0px" y="0px"
	 viewBox="0 0 32 32" style="enable-background:new 0 0 32 32;" xml:space="preserve">
<style type="text/css">
	.st0{fill:#FFFFFF;}
</style>
<path class="st0" d="M0,0v32h32V0H0z M18.61,17.8h-3.98v11.44h-3.19V17.83H7.46v-2.56h11.15V17.8z M29.28,26.48
	c-0.36,1.45-1.45,2.24-2.81,2.61c-2.04,0.56-4.08,0.48-6.09-0.21c-0.51-0.18-0.51-0.19-0.51-0.72v-2.62
	c0.14,0.1,0.23,0.17,0.33,0.24c1.33,0.95,2.8,1.35,4.42,1.09c0.31-0.05,0.63-0.17,0.9-0.33c0.63-0.38,0.79-1.11,0.35-1.7
	c-0.2-0.28-0.47-0.54-0.77-0.7c-0.74-0.4-1.53-0.7-2.27-1.1c-0.64-0.34-1.28-0.71-1.83-1.17c-1.68-1.43-1.92-5.02,1.24-6.37
	c1.33-0.56,2.73-0.66,4.14-0.52c0.74,0.07,1.47,0.26,2.2,0.42c0.09,0.02,0.23,0.14,0.23,0.22c0.01,0.9,0.01,1.81,0.01,2.76
	c-1.18-0.71-2.39-1.03-3.69-0.93c-0.41,0.03-0.83,0.13-1.2,0.3c-0.94,0.42-1.1,1.42-0.29,2.05c0.53,0.42,1.17,0.7,1.78,1.02
	c0.67,0.35,1.39,0.62,2.03,1.01C29.21,22.91,29.78,24.46,29.28,26.48z"/>
</svg>
