<?xml version="1.0" encoding="utf-8"?>
<!-- Generator: Adobe Illustrator 25.0.1, SVG Export Plug-In . SVG Version: 6.00 Build 0)  -->
<svg version="1.1" xmlns="http://www.w3.org/2000/svg" xmlns:xlink="http://www.w3.org/1999/xlink" x="0px" y="0px"
	 viewBox="0 0 32 32" style="enable-background:new 0 0 32 32;" xml:space="preserve">
<style type="text/css">
	.st0{display:none;}
	.st1{display:inline;}
	.st2{fill:#FFFFFF;}
</style>
<g id="Laag_2" class="st0">
	<rect y="0" class="st1" width="32" height="32"/>
</g>
<g id="Laag_1">
	<g>
		<path class="st2" d="M32.06,16.38c-0.04,0.18-0.08,0.36-0.11,0.55c-0.31,1.52-1.22,2.65-2.37,3.6c-1.71,1.42-3.71,2.28-5.83,2.89
			c-1.6,0.46-3.23,0.76-4.89,0.88c-0.79,0.06-1.59,0.1-2.43,0.15c0.19-0.3,0.83-0.6,1.19-0.63c3.17-0.18,6.23-0.79,9.11-2.17
			c1.3-0.62,2.49-1.39,3.43-2.51c1.77-2.1,1.67-4.47-0.25-6.44c-1.29-1.33-2.87-2.18-4.57-2.86c-0.45-0.18-0.48-0.23-0.43-0.67
			c0.06,0,0.12-0.02,0.17,0c1.96,0.7,3.79,1.61,5.26,3.14c0.88,0.92,1.53,1.97,1.67,3.27c0.01,0.06,0.04,0.12,0.06,0.18
			C32.06,15.96,32.06,16.17,32.06,16.38z"/>
		<path class="st2" d="M19.45,20.77c0.28-1.45,0.55-2.85,0.82-4.25c0.25-1.27,0.5-2.53,0.73-3.8c0.05-0.28,0.14-0.4,0.45-0.39
			c1.17,0.03,2.33-0.01,3.5,0.04c0.47,0.02,0.97,0.16,1.4,0.36c0.68,0.31,1.02,0.9,1.08,1.64c0.18,1.93-1.04,3.72-2.83,4.03
			c-0.8,0.14-1.64,0.1-2.46,0.13c-0.44,0.02-0.44,0-0.52,0.44c-0.1,0.53-0.2,1.06-0.32,1.59c-0.02,0.08-0.11,0.19-0.17,0.19
			C20.59,20.78,20.04,20.77,19.45,20.77z M21.99,17.18c0.57,0,1.11,0.03,1.65-0.01c0.69-0.05,1.3-0.3,1.58-0.99
			c0.17-0.43,0.28-0.89,0.32-1.35c0.06-0.62-0.23-0.99-0.85-1.07c-0.62-0.08-1.24-0.07-1.87-0.07c-0.07,0-0.17,0.12-0.19,0.21
			c-0.09,0.37-0.16,0.75-0.23,1.13C22.26,15.74,22.13,16.45,21.99,17.18z"/>
		<path class="st2" d="M5.11,20.77c0.55-2.85,1.09-5.63,1.65-8.47c1.48,0.04,2.94-0.01,4.38,0.14c1.39,0.15,2.07,1.12,1.98,2.52
			c-0.1,1.7-1.25,3.13-2.82,3.43c-0.66,0.12-1.35,0.1-2.02,0.14c-0.29,0.02-0.66-0.09-0.85,0.06c-0.18,0.14-0.17,0.53-0.23,0.81
			c-0.08,0.37-0.15,0.73-0.21,1.1c-0.03,0.21-0.12,0.27-0.33,0.27C6.17,20.76,5.66,20.77,5.11,20.77z M8.33,13.64
			c-0.24,1.22-0.46,2.37-0.69,3.54c0.54,0,1.02,0.02,1.51,0c1.09-0.05,1.68-0.54,1.94-1.59c0.06-0.26,0.1-0.53,0.1-0.8
			c0.01-0.61-0.24-0.95-0.85-1.03C9.69,13.67,9.02,13.68,8.33,13.64z"/>
		<path class="st2" d="M17.43,18.53c0.19-0.96,0.37-1.88,0.54-2.8c0.08-0.42,0.17-0.84,0.21-1.26c0.05-0.48-0.12-0.7-0.6-0.73
			c-0.62-0.04-1.25-0.01-1.9-0.01c-0.31,1.57-0.62,3.17-0.93,4.78c-0.61,0-1.2,0-1.82,0c0.16-0.82,0.31-1.61,0.46-2.4
			c0.37-1.9,0.74-3.8,1.1-5.7c0.05-0.24,0.13-0.33,0.38-0.32c0.49,0.02,0.98,0.01,1.51,0.01c-0.14,0.75-0.28,1.47-0.42,2.24
			c0.17,0,0.3,0,0.43,0c0.78,0.03,1.57,0.01,2.34,0.12c1.06,0.15,1.52,0.8,1.35,1.86c-0.22,1.35-0.5,2.7-0.77,4.05
			c-0.01,0.07-0.13,0.16-0.2,0.16C18.56,18.54,18.02,18.53,17.43,18.53z"/>
	</g>
</g>
</svg>
