<?xml version="1.0" encoding="utf-8"?>
<!-- Generator: Adobe Illustrator 25.0.1, SVG Export Plug-In . SVG Version: 6.00 Build 0)  -->
<svg version="1.1" xmlns="http://www.w3.org/2000/svg" xmlns:xlink="http://www.w3.org/1999/xlink" x="0px" y="0px"
	 viewBox="0 0 32 32" style="enable-background:new 0 0 32 32;" xml:space="preserve">
<style type="text/css">
	.st0{display:none;}
	.st1{display:inline;}
	.st2{fill:#212427;}
</style>
<g id="Laag_2" class="st0">
	<rect y="0" class="st1" width="32" height="32"/>
</g>
<g id="Laag_3">
	<g>
		<path class="st2" d="M17.63,28.86c-1.78,0-3.52,0-5.28,0c0-5.68,0-11.36,0-17.06c1.67,0,3.34,0,5.05,0c0,0.75,0,1.51,0,2.3
			c0.07-0.04,0.1-0.05,0.12-0.07c1.11-1.8,2.78-2.59,4.84-2.65c1.18-0.04,2.33,0.11,3.41,0.62c1.4,0.66,2.18,1.82,2.61,3.25
			c0.35,1.15,0.46,2.33,0.47,3.52c0.02,3.29,0.01,6.58,0.02,9.87c0,0.05-0.01,0.1-0.01,0.17c-1.76,0-3.5,0-5.3,0
			c0-0.11,0-0.23,0-0.35c0-2.79,0.01-5.58-0.01-8.37c0-0.63-0.05-1.27-0.17-1.89c-0.32-1.75-1.46-2.34-3.09-2.15
			c-1.48,0.18-2.3,1.04-2.53,2.65c-0.08,0.59-0.12,1.18-0.12,1.77c-0.01,2.67-0.01,5.33-0.01,8C17.63,28.58,17.63,28.7,17.63,28.86z
			"/>
		<path class="st2" d="M3.7,11.79c1.77,0,3.52,0,5.28,0c0,5.69,0,11.36,0,17.06c-1.76,0-3.51,0-5.28,0
			C3.7,23.16,3.7,17.49,3.7,11.79z"/>
		<path class="st2" d="M9.4,6.32c0.01,1.7-1.37,3.1-3.05,3.11c-1.69,0.01-3.1-1.4-3.1-3.1c0-1.67,1.37-3.06,3.05-3.08
			C8,3.24,9.39,4.62,9.4,6.32z"/>
	</g>
</g>
</svg>
