<?xml version="1.0" encoding="utf-8"?>
<!-- Generator: Adobe Illustrator 25.0.1, SVG Export Plug-In . SVG Version: 6.00 Build 0)  -->
<svg version="1.1" id="Laag_1" xmlns="http://www.w3.org/2000/svg" xmlns:xlink="http://www.w3.org/1999/xlink" x="0px" y="0px"
	 viewBox="0 0 32 32" style="enable-background:new 0 0 32 32;" xml:space="preserve">
<style type="text/css">
	.st0{fill:#FFFFFF;}
</style>
<g>
	<path class="st0" d="M2.06,0.06c9.33,0,18.67,0,28,0c-0.05,0.5-0.11,0.99-0.16,1.49c-0.12,1.29-0.24,2.59-0.36,3.88
		C29.43,6.71,29.33,8,29.22,9.28c-0.14,1.52-0.28,3.04-0.42,4.57c-0.13,1.52-0.25,3.05-0.39,4.57c-0.16,1.76-0.33,3.52-0.48,5.28
		c-0.15,1.63-0.3,3.25-0.43,4.88c-0.02,0.22-0.11,0.29-0.3,0.35c-3.3,0.92-6.6,1.84-9.9,2.76c-0.39,0.11-0.78,0.25-1.17,0.38
		c-0.04,0-0.08,0-0.12,0c-0.1-0.05-0.2-0.11-0.3-0.14c-1.72-0.48-3.44-0.96-5.16-1.44c-1.87-0.52-3.74-1.05-5.61-1.56
		c-0.19-0.05-0.31-0.12-0.3-0.35c0-0.26-0.04-0.52-0.07-0.78c-0.12-1.3-0.24-2.61-0.35-3.91c-0.09-1.05-0.18-2.09-0.27-3.14
		c-0.12-1.32-0.24-2.63-0.35-3.94c-0.09-1.04-0.18-2.07-0.27-3.11c-0.12-1.28-0.24-2.57-0.35-3.85C2.84,8.55,2.74,7.25,2.63,5.96
		C2.51,4.61,2.39,3.27,2.26,1.92C2.21,1.3,2.13,0.68,2.06,0.06z M8.37,18.23c0,0.19-0.01,0.32,0,0.45c0.14,1.65,0.29,3.29,0.43,4.94
		c0.02,0.26,0.12,0.38,0.37,0.45c2.21,0.61,4.42,1.23,6.63,1.84c0.15,0.04,0.33,0.05,0.48,0.01c2.23-0.61,4.46-1.24,6.69-1.85
		c0.21-0.06,0.31-0.16,0.33-0.38c0.06-0.78,0.13-1.55,0.2-2.33c0.11-1.27,0.22-2.55,0.33-3.82c0.12-1.36,0.24-2.71,0.36-4.07
		c0.05-0.5-0.01-0.41-0.41-0.41c-3.97,0-7.94,0-11.9,0c-0.14,0-0.28-0.01-0.43-0.02c-0.1-1.18-0.21-2.33-0.31-3.51
		c0.14,0,0.25,0,0.36,0c0.91,0,1.81,0,2.72,0c3.32,0,6.64,0,9.97,0c0.26,0,0.38-0.05,0.4-0.35c0.05-0.82,0.15-1.64,0.22-2.45
		c0.02-0.25,0.03-0.51,0.04-0.77c-5.88,0-11.73,0-17.59,0c0,0.1-0.01,0.17,0,0.24c0.05,0.55,0.1,1.1,0.15,1.65
		c0.11,1.29,0.22,2.59,0.33,3.88c0.13,1.51,0.29,3.02,0.41,4.53c0.02,0.32,0.11,0.41,0.43,0.41c3.78-0.01,7.56-0.01,11.34-0.01
		c0.13,0,0.26,0,0.37,0c0.02,0.07,0.04,0.09,0.03,0.11c-0.12,1.37-0.24,2.73-0.36,4.1c-0.02,0.23-0.09,0.35-0.33,0.41
		c-1.14,0.29-2.27,0.61-3.4,0.91c-0.12,0.03-0.27,0.03-0.39,0c-1.13-0.3-2.26-0.61-3.4-0.91c-0.22-0.06-0.3-0.18-0.32-0.39
		c-0.06-0.79-0.13-1.57-0.19-2.36c-0.01-0.21-0.09-0.3-0.3-0.29c-0.51,0.01-1.02,0-1.53,0C9.55,18.23,8.98,18.23,8.37,18.23z"/>
</g>
</svg>
