<?xml version="1.0" encoding="utf-8"?>
<!-- Generator: Adobe Illustrator 25.0.1, SVG Export Plug-In . SVG Version: 6.00 Build 0)  -->
<svg version="1.1" xmlns="http://www.w3.org/2000/svg" xmlns:xlink="http://www.w3.org/1999/xlink" x="0px" y="0px"
	 viewBox="0 0 32 32" style="enable-background:new 0 0 32 32;" xml:space="preserve">
<style type="text/css">
	.st0{display:none;}
	.st1{display:inline;}
	.st2{fill:#FFFFFF;}
</style>
<g id="Laag_2" class="st0">
	<rect y="0" class="st1" width="32" height="32"/>
</g>
<g id="Laag_1">
	<g>
		<path class="st2" d="M0.06,1.94c0.02-0.03,0.05-0.07,0.06-0.1c0.31-1.11,1.09-1.62,2.2-1.42C3.7,0.66,4.92,1.23,5.99,2.12
			c0.33,0.27,0.66,0.41,1.1,0.42c1.75,0.04,3.34,0.58,4.84,1.52c3.01,1.9,5.51,4.3,7.32,7.38c0.46,0.77,0.76,1.64,1.15,2.45
			c0.77,1.65,1.55,3.29,2.32,4.94c0.25,0.54,0.61,0.91,1.2,1.13c2.28,0.82,4.19,2.24,5.99,3.83c0.37,0.33,0.65,0.76,0.97,1.14
			c0.14,0.16,0.07,0.27-0.12,0.31c-0.57,0.13-1.13,0.26-1.7,0.38c-0.74,0.16-1.48,0.3-2.22,0.46c-0.18,0.04-0.36,0.08-0.63,0.14
			c0.21,0.26,0.35,0.51,0.57,0.67c0.44,0.33,0.9,0.65,1.37,0.92c1.08,0.62,1.98,1.44,2.77,2.4c0.1,0.12,0.19,0.25,0.31,0.35
			c0.39,0.3,0.62,0.72,0.83,1.14c-0.08-0.04-0.18-0.07-0.24-0.13c-1.01-0.92-2.14-1.66-3.39-2.19c-0.96-0.41-1.8-1.01-2.59-1.66
			c-0.61-0.5-1.03-1.15-1.3-1.88c-0.03-0.08,0.13-0.31,0.24-0.35c0.73-0.24,1.46-0.5,2.21-0.63c0.72-0.13,1.47-0.11,2.21-0.16
			c0.11-0.01,0.23,0,0.41,0c-0.07-0.15-0.1-0.26-0.17-0.33c-0.12-0.13-0.25-0.25-0.4-0.35c-1.01-0.68-1.99-1.42-3.04-2.02
			c-0.71-0.41-1.51-0.72-2.31-0.91c-1.09-0.26-1.77-0.88-2.21-1.86c-0.87-1.93-1.77-3.86-2.62-5.79c-0.7-1.59-1.64-3.01-2.76-4.33
			c-1.82-2.14-3.98-3.84-6.58-4.95C8.76,3.83,8.03,3.66,7.24,3.66C6.83,3.66,6.41,3.63,6,3.55C5.79,3.5,5.59,3.35,5.42,3.21
			C4.48,2.38,3.34,1.93,2.17,1.53C2.14,1.52,2.12,1.5,2.08,1.5c-0.33-0.05-0.67-0.07-0.9,0.21c-0.23,0.28-0.2,0.61-0.05,0.92
			C1.31,2.95,1.46,3.29,1.7,3.56c1.35,1.53,2.2,3.31,2.74,5.26c0.2,0.73,0.59,1.42,0.93,2.1c0.15,0.3,0.39,0.57,0.64,0.8
			c0.42,0.4,0.57,0.85,0.38,1.4c-0.21,0.6-0.44,1.19-0.6,1.8c-0.5,2.03-0.41,4.02,0.48,5.94c0.16,0.35,0.43,0.68,0.73,0.94
			c0.28,0.25,0.41,0.15,0.46-0.23c0.11-0.82,0.22-1.65,0.39-2.46c0.16-0.78,0.69-1.35,1.22-1.95c1.24,3.14,2.76,6.06,5.11,8.41
			c-0.06-0.04-0.19-0.12-0.3-0.22c-0.71-0.63-1.43-1.25-2.12-1.89c-0.89-0.82-1.67-1.71-2.14-2.85c-0.13-0.31-0.3-0.61-0.53-0.91
			c-0.03,0.1-0.07,0.2-0.09,0.3c-0.11,0.63-0.2,1.27-0.32,1.91c-0.21,1.14-1.26,1.52-2.16,0.78c-0.72-0.59-1.14-1.4-1.42-2.27
			c-0.64-1.99-0.64-3.99-0.06-5.99c0.15-0.54,0.33-1.07,0.46-1.61c0.03-0.12-0.04-0.32-0.13-0.42c-0.96-0.99-1.44-2.25-1.9-3.51
			C3.23,8.25,3.04,7.57,2.8,6.91C2.68,6.57,2.5,6.25,2.3,5.94C2.07,5.58,1.8,5.25,1.54,4.91c-0.62-0.8-1.28-1.57-1.48-2.6
			C0.06,2.19,0.06,2.06,0.06,1.94z"/>
		<path class="st2" d="M6.56,5.87c0.84-0.32,1.26,0.15,1.56,0.8C8.26,6.96,8.03,7.51,7.73,7.7C7.35,7.1,6.96,6.49,6.56,5.87z"/>
	</g>
</g>
</svg>
