<?xml version="1.0" encoding="utf-8"?>
<!-- Generator: Adobe Illustrator 25.0.1, SVG Export Plug-In . SVG Version: 6.00 Build 0)  -->
<svg version="1.1" xmlns="http://www.w3.org/2000/svg" xmlns:xlink="http://www.w3.org/1999/xlink" x="0px" y="0px"
	 viewBox="0 0 32 32" style="enable-background:new 0 0 32 32;" xml:space="preserve">
<style type="text/css">
	.st0{display:none;}
	.st1{display:inline;}
	.st2{fill:#FFFFFF;}
</style>
<g id="Laag_1" class="st0">
	<g class="st1">
		<rect y="0" width="32" height="32"/>
	</g>
</g>
<g id="Laag_2">
	<g>
		<path class="st2" d="M7.56,32.06c-0.45-0.12-0.92-0.2-1.35-0.36c-3.67-1.42-4.78-5.94-2.18-8.82c0.68-0.76,1.43-1.46,2.15-2.18
			c0.08-0.08,0.18-0.14,0.32-0.25c-0.25-0.24-0.46-0.43-0.65-0.62c-0.52-0.52-0.55-0.93-0.09-1.5c2.72-3.37,5.44-6.74,8.16-10.12
			c0.39-0.48,0.77-0.96,1.14-1.41c2.08,2.08,4.15,4.14,6.23,6.22c-0.7,0.56-1.43,1.14-2.15,1.71c-3.14,2.5-6.27,4.99-9.41,7.49
			c-0.63,0.5-1,0.48-1.57-0.1C8.02,22,7.89,21.85,7.66,21.6c-0.11,0.17-0.18,0.31-0.28,0.42c-0.63,0.64-1.27,1.26-1.89,1.91
			c-1.01,1.05-1.35,2.29-0.92,3.68c0.43,1.4,1.41,2.29,2.85,2.6c1.14,0.24,2.19-0.04,3.1-0.79c0.15-0.13,0.29-0.27,0.43-0.41
			c2.7-2.7,5.41-5.4,8.11-8.11c1.2-1.2,2.63-1.81,4.33-1.71c1.39,0.08,2.57,0.64,3.56,1.61c0.75,0.74,1.49,1.48,2.23,2.23
			c0.42,0.43,0.45,0.95,0.08,1.33c-0.37,0.37-0.9,0.35-1.33-0.07c-0.72-0.71-1.43-1.43-2.14-2.14c-1.63-1.62-3.84-1.62-5.47,0
			c-2.69,2.69-5.38,5.37-8.06,8.07c-0.96,0.97-2.07,1.63-3.44,1.79c-0.04,0-0.08,0.03-0.11,0.05C8.31,32.06,7.94,32.06,7.56,32.06z"
			/>
		<path class="st2" d="M22.69,0.06c0.63,0.17,1.29,0.26,1.88,0.51c2.36,0.98,3.77,3.53,3.42,6.11c-0.34,2.51-2.34,4.56-4.82,4.96
			c-0.43,0.07-0.72,0-1.04-0.33c-1.82-1.86-3.67-3.69-5.52-5.53c-0.14-0.14-0.21-0.28-0.19-0.49c0.29-2.24,1.45-3.84,3.52-4.74
			c0.58-0.25,1.24-0.33,1.86-0.49C22.1,0.06,22.4,0.06,22.69,0.06z"/>
	</g>
</g>
</svg>
