<?xml version="1.0" encoding="utf-8"?>
<!-- Generator: Adobe Illustrator 25.0.1, SVG Export Plug-In . SVG Version: 6.00 Build 0)  -->
<svg version="1.1" xmlns="http://www.w3.org/2000/svg" xmlns:xlink="http://www.w3.org/1999/xlink" x="0px" y="0px"
	 viewBox="0 0 815 78" style="enable-background:new 0 0 815 78;" xml:space="preserve">
<style type="text/css">
	.st0{display:none;}
	.st1{display:inline;}
	.st2{fill:#FFFFFF;}
</style>
<g id="Laag_2" class="st0">
	<g class="st1">
		<rect width="1920" height="1080"/>
	</g>
</g>
<g id="Laag_1">
	<g>
		<g>
			<path class="st2" d="M91.44,61.56V10.44h21.31c2.26,0,4.32,0.47,6.19,1.4s3.5,2.18,4.9,3.74c1.39,1.56,2.47,3.31,3.24,5.26
				c0.77,1.94,1.15,3.92,1.15,5.94c0,2.78-0.62,5.44-1.87,7.96c-1.25,2.52-3,4.56-5.26,6.12c-2.26,1.56-4.9,2.34-7.92,2.34H97.92
				v18.36H91.44z M97.92,37.44h14.9c1.78,0,3.32-0.48,4.64-1.44c1.32-0.96,2.35-2.26,3.1-3.89c0.74-1.63,1.12-3.41,1.12-5.33
				c0-2.02-0.43-3.83-1.3-5.44c-0.86-1.61-1.99-2.87-3.38-3.78c-1.39-0.91-2.93-1.37-4.61-1.37H97.92V37.44z"/>
			<path class="st2" d="M151.7,62.28c-2.83,0-5.4-0.51-7.7-1.54c-2.3-1.02-4.3-2.43-5.98-4.22c-1.68-1.79-2.98-3.85-3.89-6.18
				c-0.91-2.33-1.37-4.79-1.37-7.36c0-2.62,0.46-5.1,1.37-7.43c0.91-2.33,2.21-4.4,3.89-6.18c1.68-1.79,3.68-3.19,6.01-4.22
				c2.33-1.02,4.88-1.54,7.67-1.54c2.83,0,5.4,0.51,7.7,1.54c2.3,1.02,4.31,2.43,6.01,4.22c1.7,1.79,3.01,3.85,3.92,6.18
				c0.91,2.34,1.37,4.81,1.37,7.43c0,2.57-0.46,5.03-1.37,7.36c-0.91,2.34-2.21,4.4-3.89,6.18c-1.68,1.79-3.68,3.19-6.01,4.22
				C157.11,61.77,154.53,62.28,151.7,62.28z M139.24,43.05c0,2.56,0.56,4.89,1.69,6.98c1.13,2.09,2.63,3.74,4.5,4.95
				c1.87,1.21,3.96,1.82,6.26,1.82c2.3,0,4.4-0.62,6.3-1.85c1.9-1.24,3.41-2.91,4.54-5.02c1.13-2.11,1.69-4.45,1.69-7.02
				c0-2.56-0.56-4.89-1.69-6.98c-1.13-2.09-2.64-3.75-4.54-4.99c-1.9-1.24-4-1.85-6.3-1.85c-2.3,0-4.39,0.63-6.26,1.89
				s-3.37,2.93-4.5,5.02C139.81,38.09,139.24,40.44,139.24,43.05z"/>
			<path class="st2" d="M198.64,62.28c-3.07,0-5.81-0.76-8.21-2.29c-2.4-1.52-4.3-3.45-5.69-5.79V76.9h-6.34v-52.7h5.62v7.07
				c1.49-2.29,3.43-4.13,5.83-5.54c2.4-1.4,5.02-2.11,7.85-2.11c2.59,0,4.97,0.52,7.13,1.57c2.16,1.05,4.03,2.48,5.62,4.29
				c1.58,1.81,2.82,3.87,3.71,6.18c0.89,2.31,1.33,4.73,1.33,7.25c0,3.53-0.71,6.77-2.12,9.72c-1.42,2.95-3.4,5.3-5.94,7.04
				C204.88,61.41,201.95,62.28,198.64,62.28z M196.7,56.81c1.87,0,3.56-0.39,5.08-1.18c1.51-0.78,2.81-1.83,3.89-3.14
				c1.08-1.31,1.91-2.79,2.48-4.45c0.58-1.66,0.86-3.37,0.86-5.13c0-1.85-0.32-3.61-0.97-5.27c-0.65-1.66-1.56-3.14-2.74-4.42
				c-1.18-1.28-2.54-2.29-4.1-3.03c-1.56-0.74-3.25-1.1-5.08-1.1c-1.15,0-2.34,0.21-3.56,0.64c-1.22,0.43-2.39,1.03-3.49,1.81
				c-1.1,0.78-2.04,1.67-2.81,2.67c-0.77,1-1.27,2.06-1.51,3.2v10.65c0.72,1.61,1.68,3.08,2.88,4.41c1.2,1.33,2.59,2.38,4.18,3.17
				C193.39,56.42,195.02,56.81,196.7,56.81z"/>
			<path class="st2" d="M249.76,61.56l-13.03-18.22l-7.13,6.67v11.55h-6.34V9h6.34v34.41l19.44-19.22h6.84l-14.98,15.49l15.7,21.88
				H249.76z"/>
			<path class="st2" d="M278.49,62.28c-2.83,0-5.4-0.51-7.7-1.54c-2.3-1.02-4.3-2.43-5.98-4.22c-1.68-1.79-2.98-3.85-3.89-6.18
				c-0.91-2.33-1.37-4.79-1.37-7.36c0-2.62,0.46-5.1,1.37-7.43c0.91-2.33,2.21-4.4,3.89-6.18c1.68-1.79,3.68-3.19,6.01-4.22
				c2.33-1.02,4.88-1.54,7.67-1.54c2.83,0,5.4,0.51,7.7,1.54c2.3,1.02,4.31,2.43,6.01,4.22c1.7,1.79,3.01,3.85,3.92,6.18
				c0.91,2.34,1.37,4.81,1.37,7.43c0,2.57-0.46,5.03-1.37,7.36c-0.91,2.34-2.21,4.4-3.89,6.18c-1.68,1.79-3.68,3.19-6.01,4.22
				C283.9,61.77,281.32,62.28,278.49,62.28z M266.03,43.05c0,2.56,0.56,4.89,1.69,6.98c1.13,2.09,2.63,3.74,4.5,4.95
				c1.87,1.21,3.96,1.82,6.26,1.82c2.3,0,4.4-0.62,6.3-1.85c1.9-1.24,3.41-2.91,4.54-5.02c1.13-2.11,1.69-4.45,1.69-7.02
				c0-2.56-0.56-4.89-1.69-6.98c-1.13-2.09-2.64-3.75-4.54-4.99c-1.9-1.24-4-1.85-6.3-1.85c-2.3,0-4.39,0.63-6.26,1.89
				s-3.37,2.93-4.5,5.02C266.6,38.09,266.03,40.44,266.03,43.05z"/>
			<path class="st2" d="M321.62,62.28c-2.83,0-5.4-0.51-7.7-1.54c-2.3-1.02-4.3-2.43-5.98-4.22c-1.68-1.79-2.98-3.85-3.89-6.18
				c-0.91-2.33-1.37-4.79-1.37-7.36c0-2.62,0.46-5.1,1.37-7.43c0.91-2.33,2.21-4.4,3.89-6.18c1.68-1.79,3.68-3.19,6.01-4.22
				c2.33-1.02,4.88-1.54,7.67-1.54c2.83,0,5.4,0.51,7.7,1.54c2.3,1.02,4.31,2.43,6.01,4.22c1.7,1.79,3.01,3.85,3.92,6.18
				c0.91,2.34,1.37,4.81,1.37,7.43c0,2.57-0.46,5.03-1.37,7.36c-0.91,2.34-2.21,4.4-3.89,6.18c-1.68,1.79-3.68,3.19-6.01,4.22
				C327.03,61.77,324.45,62.28,321.62,62.28z M309.16,43.05c0,2.56,0.56,4.89,1.69,6.98s2.63,3.74,4.5,4.95
				c1.87,1.21,3.96,1.82,6.26,1.82c2.3,0,4.4-0.62,6.3-1.85c1.9-1.24,3.41-2.91,4.54-5.02c1.13-2.11,1.69-4.45,1.69-7.02
				c0-2.56-0.56-4.89-1.69-6.98c-1.13-2.09-2.64-3.75-4.54-4.99c-1.9-1.24-4-1.85-6.3-1.85c-2.3,0-4.39,0.63-6.26,1.89
				s-3.37,2.93-4.5,5.02S309.16,40.44,309.16,43.05z"/>
			<path class="st2" d="M368.2,29.52c-3.17,0.05-5.96,0.85-8.39,2.41c-2.42,1.56-4.14,3.71-5.15,6.44v23.18h-6.34V24.19h5.9v8.5
				c1.3-2.59,3.01-4.69,5.15-6.3c2.13-1.61,4.38-2.51,6.73-2.7c0.48,0,0.89,0,1.22,0c0.33,0,0.62,0.02,0.86,0.07V29.52z"/>
			<path class="st2" d="M423.71,21.17c-0.58-0.67-1.34-1.32-2.3-1.94c-0.96-0.62-2.04-1.19-3.24-1.69c-1.2-0.5-2.51-0.91-3.92-1.22
				c-1.42-0.31-2.89-0.47-4.43-0.47c-3.94,0-6.84,0.74-8.71,2.23c-1.87,1.48-2.81,3.52-2.81,6.1c0,1.82,0.48,3.25,1.44,4.31
				c0.96,1.05,2.44,1.91,4.43,2.58c1.99,0.67,4.52,1.36,7.6,2.08c3.55,0.77,6.62,1.7,9.22,2.8c2.59,1.1,4.58,2.57,5.98,4.41
				c1.39,1.84,2.09,4.29,2.09,7.36c0,2.44-0.47,4.56-1.4,6.35c-0.94,1.79-2.25,3.28-3.92,4.45c-1.68,1.17-3.65,2.03-5.9,2.58
				c-2.26,0.55-4.71,0.82-7.34,0.82c-2.59,0-5.12-0.28-7.6-0.83c-2.47-0.55-4.81-1.36-7.02-2.41c-2.21-1.06-4.27-2.38-6.19-3.96
				l3.1-5.47c0.77,0.82,1.76,1.62,2.99,2.41c1.22,0.79,2.62,1.52,4.18,2.2c1.56,0.67,3.25,1.21,5.08,1.62
				c1.82,0.41,3.7,0.61,5.62,0.61c3.65,0,6.48-0.66,8.5-1.97c2.02-1.31,3.02-3.24,3.02-5.77c0-1.91-0.56-3.45-1.69-4.59
				c-1.13-1.15-2.8-2.11-5-2.87c-2.21-0.77-4.9-1.53-8.06-2.3c-3.46-0.86-6.36-1.81-8.71-2.84c-2.35-1.03-4.12-2.38-5.29-4.06
				c-1.18-1.68-1.76-3.85-1.76-6.53c0-3.25,0.79-6.01,2.38-8.26s3.77-3.95,6.55-5.1c2.78-1.15,5.93-1.72,9.43-1.72
				c2.3,0,4.45,0.24,6.44,0.72c1.99,0.48,3.85,1.15,5.58,2.02c1.73,0.86,3.31,1.9,4.75,3.1L423.71,21.17z"/>
			<path class="st2" d="M436.53,16.92V9h6.34v7.92H436.53z M436.53,61.56V23.98h6.34v37.58H436.53z"/>
			<path class="st2" d="M485.7,61.56h-6.34V40.72c0-3.95-0.61-6.84-1.84-8.67c-1.22-1.83-3.08-2.75-5.58-2.75
				c-1.73,0-3.44,0.43-5.15,1.28c-1.7,0.85-3.22,2-4.54,3.45c-1.32,1.45-2.27,3.12-2.84,5.02v22.51h-6.34V24.19h5.76v8.07
				c1.01-1.76,2.3-3.29,3.89-4.57c1.58-1.29,3.38-2.29,5.4-3c2.02-0.71,4.13-1.07,6.34-1.07c2.16,0,3.97,0.39,5.44,1.18
				c1.46,0.79,2.62,1.88,3.46,3.29c0.84,1.41,1.44,3.06,1.8,4.97c0.36,1.91,0.54,3.98,0.54,6.22V61.56z"/>
			<path class="st2" d="M510.54,62.28c-2.54,0-4.88-0.52-7.02-1.55c-2.14-1.03-3.97-2.45-5.51-4.25c-1.54-1.8-2.72-3.85-3.56-6.16
				c-0.84-2.3-1.26-4.7-1.26-7.2c0-2.64,0.42-5.14,1.26-7.49c0.84-2.35,2.04-4.43,3.6-6.23c1.56-1.8,3.4-3.22,5.51-4.25
				c2.11-1.03,4.46-1.55,7.06-1.55c3.12,0,5.84,0.76,8.17,2.27c2.33,1.51,4.28,3.44,5.87,5.8v-7.49h5.62v37
				c0,3.54-0.85,6.52-2.56,8.96c-1.7,2.44-4.01,4.29-6.91,5.56c-2.9,1.27-6.13,1.9-9.68,1.9c-4.22,0-7.68-0.75-10.37-2.23
				c-2.69-1.49-4.92-3.5-6.7-6.05l3.67-3.24c1.49,2.21,3.42,3.86,5.8,4.97c2.38,1.1,4.91,1.66,7.6,1.66c2.3,0,4.43-0.41,6.37-1.23
				c1.94-0.82,3.5-2.07,4.68-3.75c1.18-1.68,1.76-3.79,1.76-6.33v-6.62c-1.39,2.3-3.3,4.13-5.72,5.47S513.23,62.28,510.54,62.28z
				 M512.49,57.1c1.34,0,2.64-0.24,3.89-0.72c1.25-0.48,2.4-1.12,3.46-1.91c1.06-0.79,1.94-1.69,2.66-2.7s1.2-2.04,1.44-3.1v-10.8
				c-0.67-1.73-1.63-3.25-2.88-4.57c-1.25-1.32-2.66-2.35-4.25-3.1c-1.58-0.74-3.22-1.12-4.9-1.12c-1.92,0-3.64,0.41-5.15,1.22
				c-1.51,0.82-2.8,1.91-3.85,3.28c-1.06,1.37-1.87,2.89-2.45,4.57c-0.58,1.68-0.86,3.38-0.86,5.11c0,1.87,0.34,3.64,1.01,5.29
				c0.67,1.66,1.58,3.13,2.74,4.43c1.15,1.3,2.52,2.3,4.1,3.02C509.03,56.74,510.71,57.1,512.49,57.1z"/>
			<path class="st2" d="M540.49,16.92V9h6.34v7.92H540.49z M540.49,61.56V23.98h6.34v37.58H540.49z"/>
			<path class="st2" d="M589.67,61.56h-6.34V40.72c0-3.95-0.61-6.84-1.84-8.67c-1.22-1.83-3.08-2.75-5.58-2.75
				c-1.73,0-3.44,0.43-5.15,1.28c-1.7,0.85-3.22,2-4.54,3.45c-1.32,1.45-2.27,3.12-2.84,5.02v22.51h-6.34V24.19h5.76v8.07
				c1.01-1.76,2.3-3.29,3.89-4.57c1.58-1.29,3.38-2.29,5.4-3c2.02-0.71,4.13-1.07,6.34-1.07c2.16,0,3.97,0.39,5.44,1.18
				c1.46,0.79,2.62,1.88,3.46,3.29c0.84,1.41,1.44,3.06,1.8,4.97c0.36,1.91,0.54,3.98,0.54,6.22V61.56z"/>
			<path class="st2" d="M614.51,62.28c-2.54,0-4.88-0.52-7.02-1.55c-2.14-1.03-3.97-2.45-5.51-4.25c-1.54-1.8-2.72-3.85-3.56-6.16
				c-0.84-2.3-1.26-4.7-1.26-7.2c0-2.64,0.42-5.14,1.26-7.49c0.84-2.35,2.04-4.43,3.6-6.23c1.56-1.8,3.4-3.22,5.51-4.25
				c2.11-1.03,4.46-1.55,7.06-1.55c3.12,0,5.84,0.76,8.17,2.27c2.33,1.51,4.28,3.44,5.87,5.8v-7.49h5.62v37
				c0,3.54-0.85,6.52-2.56,8.96c-1.7,2.44-4.01,4.29-6.91,5.56c-2.9,1.27-6.13,1.9-9.68,1.9c-4.22,0-7.68-0.75-10.37-2.23
				c-2.69-1.49-4.92-3.5-6.7-6.05l3.67-3.24c1.49,2.21,3.42,3.86,5.8,4.97c2.38,1.1,4.91,1.66,7.6,1.66c2.3,0,4.43-0.41,6.37-1.23
				c1.94-0.82,3.5-2.07,4.68-3.75c1.18-1.68,1.76-3.79,1.76-6.33v-6.62c-1.39,2.3-3.3,4.13-5.72,5.47S617.2,62.28,614.51,62.28z
				 M616.45,57.1c1.34,0,2.64-0.24,3.89-0.72c1.25-0.48,2.4-1.12,3.46-1.91c1.06-0.79,1.94-1.69,2.66-2.7s1.2-2.04,1.44-3.1v-10.8
				c-0.67-1.73-1.63-3.25-2.88-4.57c-1.25-1.32-2.66-2.35-4.25-3.1c-1.58-0.74-3.22-1.12-4.9-1.12c-1.92,0-3.64,0.41-5.15,1.22
				c-1.51,0.82-2.8,1.91-3.85,3.28c-1.06,1.37-1.87,2.89-2.45,4.57c-0.58,1.68-0.86,3.38-0.86,5.11c0,1.87,0.34,3.64,1.01,5.29
				c0.67,1.66,1.58,3.13,2.74,4.43c1.15,1.3,2.52,2.3,4.1,3.02C613,56.74,614.68,57.1,616.45,57.1z"/>
			<path class="st2" d="M702.92,48.38c0,2.64-0.67,4.94-2.02,6.91c-1.34,1.97-3.16,3.5-5.44,4.61c-2.28,1.1-4.79,1.66-7.52,1.66
				h-24.26V10.44h25.42c2.4,0,4.48,0.64,6.23,1.91c1.75,1.27,3.1,2.9,4.03,4.9c0.94,1.99,1.4,4.07,1.4,6.23
				c0,2.5-0.64,4.84-1.91,7.02c-1.27,2.18-3.08,3.8-5.44,4.86c2.93,0.86,5.24,2.46,6.95,4.79
				C702.07,42.47,702.92,45.22,702.92,48.38z M670.16,16.06v17.06h16.27c1.54,0,2.89-0.38,4.07-1.15c1.17-0.77,2.11-1.8,2.81-3.1
				c0.7-1.3,1.04-2.71,1.04-4.25c0-1.63-0.32-3.08-0.97-4.36c-0.65-1.27-1.54-2.29-2.66-3.06c-1.13-0.77-2.41-1.15-3.85-1.15H670.16
				z M696.37,47.23c0-1.58-0.35-3.05-1.04-4.39c-0.7-1.34-1.63-2.42-2.81-3.24c-1.18-0.82-2.53-1.22-4.07-1.22h-18.29v17.57h17.78
				c1.58,0,3.01-0.41,4.28-1.22c1.27-0.82,2.28-1.88,3.02-3.2C696,50.2,696.37,48.77,696.37,47.23z"/>
			<path class="st2" d="M727.62,62.28c-2.83,0-5.41-0.51-7.74-1.54c-2.33-1.02-4.34-2.43-6.05-4.22c-1.7-1.79-3.02-3.85-3.96-6.18
				c-0.94-2.33-1.4-4.81-1.4-7.43c0-3.53,0.82-6.74,2.45-9.65c1.63-2.91,3.9-5.24,6.8-7c2.9-1.76,6.23-2.64,9.97-2.64
				c3.79,0,7.09,0.89,9.9,2.68c2.81,1.79,4.99,4.12,6.55,7.01c1.56,2.88,2.34,6,2.34,9.33c0,0.48-0.01,0.94-0.04,1.39
				c-0.03,0.45-0.06,0.8-0.11,1.04h-31.18c0.19,2.42,0.88,4.57,2.05,6.44c1.18,1.87,2.7,3.35,4.57,4.41c1.87,1.07,3.89,1.6,6.05,1.6
				c2.3,0,4.48-0.58,6.52-1.73c2.04-1.15,3.44-2.66,4.21-4.54l5.47,1.51c-0.82,1.82-2.03,3.46-3.64,4.9
				c-1.61,1.44-3.5,2.57-5.69,3.38C732.53,61.87,730.16,62.28,727.62,62.28z M714.95,40.68h25.63c-0.19-2.42-0.89-4.55-2.09-6.4
				c-1.2-1.85-2.74-3.3-4.61-4.34s-3.94-1.57-6.19-1.57c-2.21,0-4.25,0.52-6.12,1.57s-3.4,2.49-4.57,4.34
				C715.82,36.13,715.14,38.26,714.95,40.68z"/>
			<path class="st2" d="M750.59,50.76c0-2.39,0.68-4.45,2.05-6.19s3.25-3.09,5.65-4.04c2.4-0.95,5.18-1.43,8.35-1.43
				c1.68,0,3.46,0.13,5.33,0.4c1.87,0.26,3.53,0.66,4.97,1.19v-2.72c0-2.84-0.86-5.08-2.59-6.71c-1.73-1.63-4.18-2.45-7.34-2.45
				c-2.06,0-4.04,0.37-5.94,1.12c-1.9,0.74-3.9,1.81-6.01,3.2l-2.3-4.46c2.45-1.68,4.9-2.94,7.34-3.78
				c2.45-0.84,4.99-1.26,7.63-1.26c4.8,0,8.59,1.32,11.38,3.96c2.78,2.64,4.18,6.32,4.18,11.03v15.77c0,0.76,0.16,1.32,0.47,1.68
				c0.31,0.36,0.83,0.56,1.55,0.61v4.9c-0.62,0.1-1.17,0.17-1.62,0.22c-0.46,0.05-0.83,0.07-1.12,0.07c-1.49,0-2.6-0.41-3.35-1.22
				c-0.75-0.82-1.17-1.68-1.26-2.59l-0.14-2.38c-1.63,2.11-3.77,3.74-6.41,4.9c-2.64,1.15-5.26,1.73-7.85,1.73
				c-2.5,0-4.73-0.51-6.7-1.54c-1.97-1.03-3.5-2.41-4.61-4.15C751.14,54.85,750.59,52.91,750.59,50.76z M775.07,53.39
				c0.58-0.66,1.03-1.34,1.37-2.03c0.33-0.69,0.5-1.27,0.5-1.75v-4.63c-1.49-0.57-3.05-1.01-4.68-1.32
				c-1.63-0.31-3.24-0.46-4.82-0.46c-3.22,0-5.82,0.63-7.81,1.89c-1.99,1.26-2.99,2.98-2.99,5.17c0,1.19,0.32,2.34,0.97,3.46
				c0.65,1.12,1.61,2.03,2.88,2.75c1.27,0.71,2.84,1.07,4.72,1.07c1.97,0,3.84-0.39,5.62-1.18
				C772.59,55.57,774.01,54.58,775.07,53.39z"/>
			<path class="st2" d="M812.86,59.9c-0.53,0.24-1.25,0.55-2.16,0.94c-0.91,0.38-1.97,0.72-3.17,1.01c-1.2,0.29-2.47,0.43-3.82,0.43
				c-1.54,0-2.95-0.28-4.25-0.83s-2.33-1.42-3.1-2.59c-0.77-1.18-1.15-2.65-1.15-4.43V29.16h-5.11v-4.97h5.11V11.66h6.34v12.53h8.42
				v4.97h-8.42v23.33c0.1,1.34,0.55,2.34,1.37,2.99c0.82,0.65,1.78,0.97,2.88,0.97c1.25,0,2.4-0.22,3.46-0.65
				c1.05-0.43,1.75-0.74,2.09-0.94L812.86,59.9z"/>
		</g>
	</g>
	<g>
		<path class="st2" d="M9.88,70.73c-0.9-0.24-1.83-0.39-2.69-0.72c-7.33-2.83-9.55-11.88-4.35-17.62c1.37-1.51,2.86-2.91,4.3-4.35
			c0.16-0.16,0.35-0.3,0.61-0.52c-0.48-0.45-0.89-0.83-1.28-1.22c-1.04-1.04-1.09-1.86-0.18-3c5.43-6.74,10.87-13.48,16.31-20.22
			c0.77-0.95,1.54-1.91,2.27-2.82c4.16,4.15,8.29,8.28,12.45,12.44c-1.41,1.12-2.85,2.27-4.3,3.42
			c-6.27,4.99-12.54,9.98-18.81,14.96c-1.26,1.01-1.99,0.97-3.14-0.19c-0.28-0.28-0.53-0.58-0.99-1.08
			c-0.22,0.34-0.36,0.63-0.57,0.85c-1.25,1.28-2.55,2.52-3.79,3.81c-2.01,2.09-2.7,4.58-1.84,7.36c0.87,2.81,2.82,4.58,5.7,5.2
			c2.29,0.49,4.37-0.08,6.19-1.57c0.3-0.25,0.58-0.53,0.86-0.81c5.4-5.4,10.81-10.8,16.2-16.21c2.39-2.4,5.25-3.61,8.65-3.42
			c2.78,0.15,5.14,1.28,7.11,3.23c1.5,1.48,2.98,2.97,4.46,4.46c0.85,0.86,0.9,1.91,0.16,2.65c-0.74,0.75-1.81,0.7-2.66-0.14
			c-1.44-1.42-2.85-2.86-4.28-4.28c-3.25-3.24-7.68-3.24-10.93,0.01c-5.38,5.37-10.76,10.73-16.11,16.13
			c-1.93,1.94-4.13,3.26-6.89,3.58c-0.08,0.01-0.15,0.06-0.23,0.09C11.38,70.73,10.63,70.73,9.88,70.73z"/>
		<path class="st2" d="M50.83,18.33c0.1,5.85-4.49,11.03-10.31,11.66c-0.46,0.05-0.81-0.04-1.16-0.39
			c-3.78-3.81-7.58-7.6-11.38-11.39c-0.29-0.29-0.43-0.55-0.38-0.98c0.59-4.5,2.89-7.79,7.09-9.5c4.57-1.87,8.83-1.08,12.49,2.27
			C49.61,12.21,50.74,15.06,50.83,18.33z"/>
	</g>
</g>
</svg>
