<?xml version="1.0" encoding="utf-8"?>
<!-- Generator: Adobe Illustrator 25.0.1, SVG Export Plug-In . SVG Version: 6.00 Build 0)  -->
<svg version="1.1" xmlns="http://www.w3.org/2000/svg" xmlns:xlink="http://www.w3.org/1999/xlink" x="0px" y="0px"
	 viewBox="0 0 430 80" style="enable-background:new 0 0 430 80;" xml:space="preserve">
<style type="text/css">
	.st0{display:none;}
	.st1{display:inline;}
	.st2{fill:#FFFFFF;}
</style>
<g id="Laag_2" class="st0">
	<g class="st1">
		<rect width="1920" height="1080"/>
	</g>
</g>
<g id="Laag_1">
	<g>
		<g>
			<path class="st2" d="M129.52,61.92c-3.89,0-7.46-0.64-10.73-1.91c-3.27-1.27-6.11-3.08-8.53-5.44c-2.42-2.35-4.31-5.09-5.65-8.21
				c-1.34-3.12-2.02-6.58-2.02-10.37c0-3.79,0.67-7.25,2.02-10.37c1.34-3.12,3.24-5.86,5.69-8.21c2.45-2.35,5.3-4.16,8.57-5.44
				c3.26-1.27,6.84-1.91,10.73-1.91c4.13,0,7.9,0.71,11.3,2.12c3.41,1.42,6.29,3.52,8.64,6.3l-6.05,5.69
				c-1.87-1.97-3.94-3.44-6.19-4.43c-2.26-0.98-4.68-1.48-7.27-1.48c-2.64,0-5.05,0.43-7.24,1.3c-2.18,0.86-4.08,2.09-5.69,3.67
				c-1.61,1.58-2.87,3.46-3.78,5.62c-0.91,2.16-1.37,4.54-1.37,7.13c0,2.59,0.46,4.97,1.37,7.13c0.91,2.16,2.17,4.03,3.78,5.62
				c1.61,1.58,3.5,2.81,5.69,3.67c2.18,0.86,4.6,1.3,7.24,1.3c2.59,0,5.02-0.49,7.27-1.48c2.26-0.98,4.32-2.48,6.19-4.5l6.05,5.69
				c-2.35,2.78-5.23,4.9-8.64,6.34C137.49,61.2,133.7,61.92,129.52,61.92z"/>
			<path class="st2" d="M179.49,22.25c3.12,0,5.87,0.6,8.24,1.8c2.38,1.2,4.27,3.05,5.69,5.54c1.42,2.5,2.12,5.69,2.12,9.58V61.2h-9
				V40.32c0-3.41-0.79-5.95-2.38-7.63c-1.58-1.68-3.84-2.52-6.77-2.52c-2.11,0-3.98,0.43-5.62,1.3c-1.63,0.86-2.89,2.15-3.78,3.85
				c-0.89,1.7-1.33,3.85-1.33,6.44V61.2h-8.93V7.78h8.93v25.42l-1.87-3.24c1.3-2.45,3.23-4.34,5.8-5.69
				C173.17,22.92,176.13,22.25,179.49,22.25z"/>
			<path class="st2" d="M218.59,61.7c-2.88,0-5.4-0.49-7.56-1.48c-2.16-0.98-3.83-2.35-5-4.1c-1.18-1.75-1.76-3.73-1.76-5.94
				c0-2.16,0.52-4.1,1.55-5.83c1.03-1.73,2.72-3.1,5.08-4.1c2.35-1.01,5.47-1.51,9.36-1.51h11.16v5.98h-10.51
				c-3.02,0-5.08,0.49-6.16,1.48c-1.08,0.98-1.62,2.22-1.62,3.71c0,1.58,0.65,2.86,1.94,3.82c1.3,0.96,3.1,1.44,5.4,1.44
				c2.21,0,4.19-0.5,5.94-1.51c1.75-1.01,3.04-2.5,3.85-4.46l1.44,5.4c-0.86,2.26-2.4,4.01-4.61,5.26
				C224.88,61.08,222.04,61.7,218.59,61.7z M230.68,61.2v-7.85l-0.43-1.58V38.16c0-2.64-0.8-4.69-2.41-6.16
				c-1.61-1.46-4.04-2.2-7.31-2.2c-2.11,0-4.2,0.34-6.26,1.01c-2.06,0.67-3.84,1.61-5.33,2.81l-3.53-6.55
				c2.11-1.58,4.58-2.78,7.42-3.6c2.83-0.82,5.78-1.22,8.86-1.22c5.62,0,9.94,1.34,12.96,4.03c3.02,2.69,4.54,6.82,4.54,12.38V61.2
				H230.68z"/>
			<path class="st2" d="M250.77,61.2V22.75h8.57v10.58l-1.01-3.1c1.1-2.59,2.9-4.57,5.4-5.94c2.5-1.37,5.54-2.05,9.14-2.05v8.57
				c-0.34-0.05-0.67-0.08-1.01-0.11c-0.34-0.02-0.65-0.04-0.94-0.04c-3.46,0-6.19,0.98-8.21,2.95c-2.02,1.97-3.02,4.97-3.02,9V61.2
				H250.77z"/>
			<path class="st2" d="M285.47,16.42c-1.68,0-3.06-0.53-4.14-1.58c-1.08-1.06-1.62-2.35-1.62-3.89c0-1.44,0.54-2.69,1.62-3.74
				c1.08-1.06,2.46-1.58,4.14-1.58c1.68,0,3.06,0.49,4.14,1.48c1.08,0.98,1.62,2.24,1.62,3.78c0,1.54-0.53,2.84-1.58,3.92
				C288.59,15.88,287.2,16.42,285.47,16.42z M281.01,61.2V22.75h8.93V61.2H281.01z"/>
			<path class="st2" d="M318.02,61.7c-3.26,0-6.14-0.61-8.64-1.84c-2.5-1.22-4.45-3.1-5.87-5.62c-1.42-2.52-2.12-5.7-2.12-9.54
				V22.75h9.07v20.81c0,3.41,0.79,5.96,2.38,7.67c1.58,1.7,3.79,2.56,6.62,2.56c2.11,0,3.96-0.43,5.54-1.3
				c1.58-0.86,2.81-2.16,3.67-3.89c0.86-1.73,1.3-3.86,1.3-6.41V22.75h9V61.2h-8.57V50.76l1.51,3.24c-1.3,2.45-3.19,4.34-5.69,5.69
				C323.73,61.03,320.99,61.7,318.02,61.7z"/>
			<path class="st2" d="M399.31,22.25c3.07,0,5.8,0.6,8.17,1.8c2.38,1.2,4.24,3.05,5.58,5.54c1.34,2.5,2.02,5.69,2.02,9.58V61.2
				h-8.93V40.32c0-3.41-0.76-5.95-2.27-7.63c-1.51-1.68-3.66-2.52-6.44-2.52c-1.97,0-3.71,0.43-5.22,1.3
				c-1.51,0.86-2.69,2.15-3.53,3.85c-0.84,1.7-1.26,3.83-1.26,6.37V61.2h-8.93V40.32c0-3.41-0.76-5.95-2.27-7.63
				c-1.51-1.68-3.66-2.52-6.44-2.52c-1.97,0-3.71,0.43-5.22,1.3c-1.51,0.86-2.69,2.15-3.53,3.85c-0.84,1.7-1.26,3.83-1.26,6.37V61.2
				h-8.93V22.75h8.57v10.3l-1.58-3.1c1.3-2.45,3.18-4.34,5.65-5.69c2.47-1.34,5.32-2.02,8.53-2.02c3.6,0,6.72,0.89,9.36,2.66
				c2.64,1.78,4.39,4.51,5.26,8.21l-3.46-1.3c1.2-2.83,3.24-5.14,6.12-6.91C392.18,23.14,395.51,22.25,399.31,22.25z"/>
		</g>
	</g>
	<g>
		<path class="st2" d="M63.96,28.84c-0.25,1.17-0.43,2.36-0.77,3.51c-0.74,2.48-2.51,5.16-4.13,6.45c-1.9-1.87-4.18-2.56-6.78-1.97
			c-2.64,0.6-4.27,2.34-5.2,4.82c-3.42-1.08-6.36-0.35-8.46,2.57c-1.88,2.61-1.74,5.4-0.12,8.09c-0.73,0.51-1.52,0.96-2.2,1.55
			c-2.29,2-2.98,5.3-1.7,8.07c0.19,0.41,0.11,0.61-0.18,0.9c-1.31,1.28-2.59,2.58-3.89,3.87c-1.19,1.18-2.85,1.26-3.95,0.18
			c-1.15-1.13-1.11-2.82,0.11-4.05c1.26-1.27,2.54-2.51,3.78-3.8c1.19-1.24,0.61-3.2-1.05-3.56c-0.8-0.18-1.47,0.1-2.04,0.67
			c-1.23,1.24-2.47,2.47-3.7,3.7c-1.21,1.21-2.88,1.27-4,0.15c-1.11-1.11-1.06-2.79,0.14-4c1.22-1.22,2.44-2.44,3.66-3.66
			c0.99-1,1.05-2.26,0.16-3.15c-0.89-0.88-2.16-0.82-3.15,0.16c-1.3,1.29-2.59,2.59-3.88,3.88c-1.09,1.08-2.56,1.14-3.54,0.15
			c-0.97-0.97-0.9-2.47,0.19-3.55c4.67-4.67,9.36-9.34,14.02-14.03c0.38-0.38,0.61-0.43,0.99-0.02c0.66,0.72,1.38,1.39,2.07,2.07
			c2.28,2.25,5.88,2.79,8.78,1.34c2.88-1.44,4.5-4.6,4.04-7.83c-0.25-1.75-0.98-3.24-2.26-4.47c-2.1-2.02-4.17-4.06-6.26-6.08
			c-0.16-0.16-0.37-0.26-0.6-0.42c2.25-2.07,4.05-4.36,6.55-5.91c9.15-5.67,21.43-0.09,23.14,10.54c0.07,0.41,0.15,0.81,0.23,1.21
			C63.96,27.09,63.96,27.97,63.96,28.84z"/>
		<path class="st2" d="M12.12,45.18c-3.01-2.91-6.03-5.47-8.6-8.42c-3.65-4.19-4.42-9.16-2.49-14.36c1.94-5.2,5.83-8.33,11.3-9.23
			c4.57-0.75,8.7,0.47,12.08,3.66c4.55,4.29,9,8.7,13.47,13.07c1.93,1.89,1.22,4.98-1.29,5.7c-1.22,0.35-2.35,0.12-3.29-0.78
			c-0.78-0.75-1.53-1.53-2.3-2.29c-1.93-1.89-4.59-1.88-6.5,0.02c-3.97,3.96-7.94,7.94-11.91,11.91
			C12.43,44.65,12.32,44.88,12.12,45.18z"/>
		<path class="st2" d="M50.91,57.46c-0.94,0.01-1.61-0.24-2.15-0.78c-2.16-2.16-4.34-4.3-6.48-6.48c-1.06-1.08-0.99-2.8,0.08-3.88
			c1.09-1.1,2.79-1.24,3.88-0.19c2.26,2.18,4.47,4.4,6.66,6.66c0.83,0.85,0.92,1.95,0.41,3.02C52.81,56.86,51.93,57.42,50.91,57.46z
			"/>
		<path class="st2" d="M60.63,47.57c-0.04,1.19-0.61,2.07-1.66,2.57c-1.07,0.52-2.15,0.4-3.02-0.41c-1.45-1.36-2.87-2.77-4.23-4.23
			c-1-1.07-0.85-2.78,0.22-3.83c1.05-1.03,2.73-1.15,3.79-0.16c1.45,1.37,2.87,2.78,4.22,4.24c0.42,0.45,0.57,1.15,0.84,1.74
			C60.74,47.51,60.68,47.54,60.63,47.57z"/>
		<path class="st2" d="M43.68,64.41c-0.89-0.01-1.55-0.29-2.09-0.82c-0.86-0.85-1.72-1.69-2.55-2.56c-1.08-1.12-1.06-2.83,0.02-3.93
			c1.11-1.14,2.81-1.22,3.97-0.13c0.92,0.87,1.83,1.76,2.68,2.69c0.82,0.89,0.98,1.96,0.46,3.06C45.66,63.8,44.76,64.36,43.68,64.41
			z"/>
	</g>
</g>
</svg>
